<?xml version="1.0" standalone="no"?>
<!DOCTYPE svg PUBLIC "-//W3C//DTD SVG 1.1//EN" "http://www.w3.org/Graphics/SVG/1.1/DTD/svg11.dtd" >
<svg xmlns="http://www.w3.org/2000/svg">
<metadata></metadata>
<defs>
<font id="anudawregular" horiz-adv-x="1728" >
<font-face units-per-em="2048" ascent="1638" descent="-410" />
<missing-glyph horiz-adv-x="1609" />
<glyph horiz-adv-x="0" />
<glyph unicode="&#xd;" horiz-adv-x="1609" />
<glyph unicode=" "  horiz-adv-x="1609" />
<glyph unicode="&#x09;" horiz-adv-x="1609" />
<glyph unicode="&#xa0;" horiz-adv-x="1609" />
<glyph unicode="!" horiz-adv-x="1318" d="M188 -33q-10 90 170 297q188 211 301 211q29 0 37 -12q-2 -10 0 -31q70 43 152 43q23 0 31 -4t18 -16q14 -1 39 -13q0 -33 -25 -57q-45 -51 -143 -145q-37 -23 -102 -74q-88 -86 -209 -150q-127 -66 -213 -65q-39 0 -56 16zM258 1446q0 25 43 63q29 23 57 47 q-12 78 -4 101q14 37 61.5 67.5t76.5 30.5q33 0 32 -29q-2 -4 4 -8q61 47 103 47q25 0 28 -5t5 -29q2 -8 10 -9q-8 0 143.5 49.5t257.5 49.5q39 -1 55 -13q6 -12 -12 -45q-14 -23 -28 -45q-6 -18 -25 -53q-27 -16 -61 -53q-35 -145 -101 -398q-25 -92 -106 -335 q0 -14 -2 -43q-14 -49 -70 -99q-59 -55 -111 -55q-6 0 -13 3t-13 3q-8 0 -32 -11t-32 -11q-31 0 -30 12q0 29 -5 37q-45 -23 -61 -23q-20 0 -33 13q-8 119 -14 460q-8 276 -14 277q-4 0 -33 -8.5t-43 -8.5q-33 0 -33 21zM537 211q29 12 102 65q47 43 57 70q-29 -10 -116 -76 q-53 -49 -43 -59zM662 1583q65 23 178 74q-47 -10 -95 -19q-55 -12 -83 -36v-19zM666 1468q10 -154 24 -434q20 82 62 250t65 248q-16 -6 -151 -64z" />
<glyph unicode="&#x22;" horiz-adv-x="1533" d="M246 954q0 4 18.5 47t22.5 62q6 35 6 98q0 82 -33 287q0 4 -7 15.5t-7 17.5q0 43 63 84q55 35 84 34q41 0 51 -63q10 55 67.5 95t102.5 32q18 -18 21 -29q20 -74 41 -147q14 -63 14 -141q0 -109 -35 -205q-12 -39 -64 -78t-93 -39q-23 0 -25 2q-8 6 -29 49 q-23 -55 -72.5 -98t-95.5 -43q-31 0 -30 20zM446 1528q0 -6 9.5 -51t11.5 -60q12 -172 2 -266q14 10 29 23q12 36 12 77q0 66 -12 115q-18 72 -37 141q-2 10 -8.5 19.5t-6.5 1.5zM881 1524q0 45 69 98q10 14 40 42t93 54q4 2 27 2q82 0 139 -90q18 -31 37 -96 q23 -72 23 -123q0 -115 -80 -231q-90 -131 -223 -154q-8 0 -29 -9t-33 -9q-33 0 -33 22q0 6 2 12q20 35 21 138q0 6 -26.5 171t-26.5 173zM1098 1407q0 -4 8 -68q10 -70 10 -100q8 14 17.5 29.5t5.5 72.5q-6 109 -33 109q-4 0 -8 -8v-35z" />
<glyph unicode="#" horiz-adv-x="1740" d="M176 414q0 57 119 110q47 29 141 82q0 -2 -2 43q-2 57 -4 156q-29 -18 -82 -57q-8 -14 -31 -43q-61 -55 -108 -56q-25 0 -25 23q0 12 17 39q0 2 -8.5 9t-8.5 13q0 27 37 53q29 18 57.5 37t92.5 60q18 10 55 37q6 164 6 143v154q0 35 9.5 73.5t54.5 69.5q39 29 67 29 q4 0 13.5 -7.5t13.5 -7.5t27.5 11.5t29.5 11.5q31 0 35 -27q-2 -33 -4 -94q2 -78 10 -238q82 37 248 105q-2 49 -14 162q0 6 -11.5 16t-11.5 16q0 33 51 64q45 29 66 29q37 0 47 -41q4 -35 10 -68q14 53 57 96q51 49 103 45q16 -14 16 -26q2 -63 11 -201q16 2 57 0l5 -5 t13 -5q4 0 83 14t85 14q27 0 41 -8q10 -35 -74 -88q-76 -47 -108 -47q-14 0 -21.5 8t-13.5 8q2 0 -67 -10q6 -76 16 -225l221 27q37 -1 51 -9q0 -45 -116 -114q16 -2 45 -13q-14 -61 -80 -86q-53 -16 -109 -32q6 -61 23 -177q2 -12 13 -50t11 -42q0 -37 -45 -71.5t-88 -30.5 q-16 10 -18 22q-8 57 -31 179q-8 -18 -6 -45q2 -47 -44 -90.5t-91 -43.5q-8 0 -14.5 4.5t-14.5 16.5q-12 76 -31 264q-2 2 -10 2q-14 0 -109.5 -22.5t-119.5 -30.5q27 -180 26 -172q0 -41 -44 -74t-74 -33q-20 0 -25 23q2 4 -2 8q-18 -20 -52 -35.5t-55 -11.5q-2 4 -8 10 q-2 86 -28 178q-47 -23 -95 -47q-94 -49 -112 -49q-27 0 -27 16q0 8 23 39q-6 0 -19.5 -2t-19.5 -2q-25 0 -25 17zM688 950q4 -80 10 -225q43 18 246 92q-4 29 0 213h-18q-111 -31 -121 -35q-70 -20 -117 -45zM715 645q149 41 233 55q-4 8 -4 25h-14q-72 -27 -215 -80z M1075 1321q4 -80 4 -131q19 10 33 10q-4 53 -4 111q-23 0 -33 10zM1083 1067l4 -213q14 4 41 10q-12 125 -12 213q-18 -10 -33 -10zM1092 729q10 0 24.5 2t20.5 2q0 10 -2 21l-2 12q-27 -8 -41 -8v-29zM1100 616q14 5 41 15h-20.5h-20.5v-15zM1280 791q0 -6 3 -16.5t3 -12.5 q29 4 90 22q-8 10 -8 19q-31 -4 -88 -12z" />
<glyph unicode="$" horiz-adv-x="1312" d="M176 868q0 289 258 492q-10 57 -37 119l-9 9t-7 15q0 35 55 70q47 29 72 29q27 0 37 -26t20 -50q-4 25 0 73q8 35 59.5 67t80.5 24q2 -2 8 -11q2 -68 10 -206q45 4 94 4q66 0 84 -7q4 -2 9 -15t12 -13q4 0 10 2t12 2q14 0 19 -2q90 -106 90 -133q0 -33 -54.5 -91.5 t-89.5 -66.5q-45 -10 -67 -10q-82 0 -82 78q0 55 18 94q-12 -2 -41 -2v-25q2 -88 54 -315q39 -10 62.5 -11t70.5 -12q182 -86 182 -258q0 -61 -39 -127q-10 -16 -29 -45q-16 -18 -69 -67q-45 -41 -45 -47q0 8 24 -78q2 -8 62 -156q53 -135 53 -152q0 -39 -50 -76.5 t-93 -33.5q-29 90 -60 164q-8 -16 -10 -29q-6 -45 -54 -79t-89 -29q-2 4 -9 10q-6 84 -12 166q-8 92 -29 157q-86 -31 -141 -30q-37 0 -67 10q-6 8 -21 18q-45 10 -90 19q-25 10 -25 59q0 82 79 174t173 123q6 2 43 0q-10 72 -35 188h-12q-29 0 -33 -20q-14 -51 -59 -91 t-94 -50q-8 -2 -34 -11.5t-34 -9.5q-10 0 -37 17q-23 8 -61 43q-6 12 -16 39q-16 37 -17 120zM328 950q0 -51 16 -104q-8 113 55 272q10 23 41 78q25 47 25 51q0 6 -2 15.5t-2 13.5q-66 -49 -105 -164q-29 -90 -28 -162zM494 891q18 4 61 27q-8 37 -39 149q-14 -63 -22 -176 zM586 569q0 -41 47 -129q-4 59 -23 178q-2 -6 -13 -25.5t-11 -23.5zM893 510q0 -6 3 -10t3 -6q55 46 55 116q0 35 -14 84q0 -12 2 -28q2 -12 0 -25q0 -20 -10 -55q-4 -16 -21.5 -45t-17.5 -31z" />
<glyph unicode="%" horiz-adv-x="1886" d="M254 993q0 6 9 40t11 44q31 154 170 322q145 178 269 178q31 0 41 -12q2 -6 -1 -22.5t-3 -24.5q39 25 81 24q58 1 66 -24q0 -16 -2 -50q-12 -45 -37 -77q-184 -248 -203 -269q-178 -205 -299 -204q-102 0 -102 75zM365 102q0 29 208 369q141 233 433 703q301 473 440 473 q35 0 35 -23q0 -10 -29 -53q12 0 34.5 6t29.5 6q34 1 34 -22t-61 -115q-35 -53 -72 -107q-80 -139 -256 -438q-59 -98 -180 -287q-70 -104 -141 -208q-100 -164 -101 -246q0 -4 2 -8q25 12 47 12q39 0 39 -25q0 -59 -108 -110q-84 -41 -129 -41q-35 0 -55 12q0 31 10 80 q12 61 14 84q-94 -94 -156 -94q-39 0 -38 32zM459 1081q41 18 127 121.5t123 179.5q-18 -16 -88 -98q-53 -61 -72 -63q-90 -57 -90 -103v-37zM758 504q90 123 301 457q115 196 213 401q-82 -119 -277 -438q-102 -184 -237 -420zM1026 68q0 37 49 135q74 143 172 284 q186 272 303 273q35 0 35 -25q0 -10 -41 -65q14 0 40 7t32 7q33 0 70 -31q12 -86 -97 -260q-31 -51 -213 -246q-78 -84 -121 -112q-59 -41 -129 -41q-100 0 -100 74zM1397 344q8 0 49 55q51 70 51 99q0 10 -8 12q-23 -25 -68 -96q-25 -59 -24 -68v-2z" />
<glyph unicode="&#x26;" horiz-adv-x="1480" d="M242 547q0 20 43 94l51 88q63 147 221 307t293 209q-12 0 -35 4q-14 20 -41 60q-53 72 -94 110q-14 6 -39 23q0 35 41 74q35 33 74 47q14 2 43 10q37 29 112 72q6 2 21 2q35 0 86 -74q37 -55 47 -84q18 -53 18 -88q0 -86 -39 -123q14 -6 43 -21q6 -41 -54 -85t-103 -44 q-6 0 -24.5 3.5t-24.5 3.5q-53 0 -138 -160q-76 -143 -75 -189q0 -10 20 -41q18 8 209 129q166 104 215 105q35 0 35 -23q0 -37 -66 -79q-37 -23 -75 -46q-43 -41 -121 -133q-10 -14 -24.5 -68.5t-14.5 -66.5q0 -39 10 -39q6 0 21.5 10.5t23.5 10.5q47 4 156 57 q100 49 143 41q10 -8 10 -20q0 10 -12 -35q16 -23 43 -76q23 -78 70 -231q2 -6 16 -23t14 -25q0 -39 -60 -78.5t-91 -39.5q-35 0 -50.5 34.5t-27.5 69.5q-2 -2 -2 -22q0 -23 11.5 -59t23.5 -44q16 0 45 -12q2 -39 -59.5 -89t-104.5 -50q-100 0 -100 221q0 -27 18 233 q-125 -53 -358 -139q-37 -12 -117 -12h-57q-41 8 -41 43t125 166q63 66 129 133q-4 2 -15 2q4 0 -93 -46t-189 -46q-86 0 -86 49zM426 645q54 2 70 0q-16 27 -2 113q-39 -70 -68 -113zM571 385h45q5 0 56 18q-12 59 -13 78q-63 -61 -88 -96z" />
<glyph unicode="'" horiz-adv-x="1058" d="M311 954q0 4 18.5 47t22.5 62q6 35 6 98q0 82 -32 287q0 4 -7.5 15.5t-7.5 17.5q0 43 64 84q55 35 84 34q41 0 51 -63q10 55 67.5 95t102.5 32q18 -18 20 -29q20 -74 41 -147q15 -63 15 -141q0 -109 -35 -205q-12 -39 -64.5 -78t-93.5 -39q-23 0 -24 2q-8 6 -29 49 q-23 -55 -73 -98t-95 -43q-31 0 -31 20zM512 1528q0 -6 9 -51t11 -60q12 -172 3 -266q14 10 28 23q12 36 12 77q0 66 -12 115q-18 72 -37 141q-2 10 -8 19.5t-6 1.5z" />
<glyph unicode="(" horiz-adv-x="1146" d="M262 573q0 225 94 502q113 326 283 438q14 20 39 58q16 25 61 50.5t72 25.5q31 0 31 -23l-33 -74q-33 -73 -41 -106q-53 -242 -57 -381q0 -53 -11 -172q-8 -111 -8 -113q0 -174 62 -364q31 -88 53 -133q14 -33 67 -119q44 -72 44 -80q0 -35 -46.5 -74t-85.5 -47 q-4 -2 -38 -2q-68 92 -140 248q-76 -55 -116 -55q-55 0 -119 81q-45 61 -51 70q-29 41 -37 72q-23 96 -23 198zM444 672q0 -184 58 -240q29 14 28 29q0 -8 -12 82q-8 61 -8 139q0 195 35 498q-100 -344 -101 -508zM545 1180h10v14h-10v-14z" />
<glyph unicode=")" horiz-adv-x="1193" d="M233 1460q0 45 72 90q61 39 92 39q6 0 14.5 -3t14.5 -3t26.5 17.5t26.5 21.5q45 25 82 25q51 0 141 -80q80 -74 127 -148l52 -116q80 -187 80 -406q0 -451 -218 -819q-20 -31 -83.5 -62.5t-100.5 -31.5q-18 0 -28.5 8t-18.5 8q-6 0 -28.5 -14.5t-30.5 -18.5 q-20 -6 -39 -6q-35 0 -35 35q0 4 18 86q20 90 27 131q31 266 31 457q0 414 -129 653q-8 12 -56 72q-37 47 -37 65zM549 1397q102 -270 102 -623v-184t-26 -268q16 6 37.5 -4.5t15.5 -30.5q84 297 84 506q0 365 -213 604z" />
<glyph unicode="*" horiz-adv-x="1402" d="M205 1063q0 45 67 94q57 41 105 49q35 4 104 13q-96 223 -96 243q0 47 70 94q59 41 94 41q20 0 37 -18q86 90 157 80q37 -47 41 -137q4 -104 21 -146q211 158 289 158q12 0 32 -2q25 -31 25 -53q0 -45 -90 -95q-49 -25 -96 -47q-8 -8 -136 -166v-32q86 -27 252 -76 q39 -7 119 -25q6 -51 -54.5 -98t-113.5 -47q-31 0 -164 41q12 -135 13 -191q0 -68 -2 -77q-8 -47 -78 -94.5t-111 -39.5q-10 6 -10 23q0 4 6 35q6 23 0 35q-20 70 -74 213q-82 -123 -82 -150q0 -6 11.5 -15t11.5 -16q0 -49 -74 -90q-59 -35 -92 -35q-37 0 -51 23 q-55 -27 -76 -27q-39 0 -39 27q0 37 178 303q33 55 115 174q-10 25 -84 25q-16 0 -62 -31t-79 -31q-27 0 -55.5 23.5t-28.5 44.5z" />
<glyph unicode="+" horiz-adv-x="1861" d="M250 618q0 55 92 113q78 51 115 51q6 0 18 -6t19 -6q35 0 266 78v483q0 39 74 84q68 41 96 41q6 0 16 -6t17 -6q2 0 47 37t90 37q16 0 22 -5q25 -31 27 -67q12 -391 -2 -500h41q6 0 156.5 24.5t158.5 24.5q45 0 45 -22q0 -16 -16 -47q29 -17 29 -29q0 -43 -72 -92 q-57 -39 -88 -45q-106 -23 -236 -31v-37q2 -6 41 -249.5t39 -252.5q0 -49 -71.5 -101t-120.5 -42q-25 20 -25 39q0 68 -10 107q-88 -84 -150 -84q-57 0 -67 141q-4 41 -10.5 124t-18.5 257l-3 3t-11 3q-57 0 -201 -51q-47 -39 -139 -88q-6 -2 -25 -2q-47 0 -47 36 q0 20 37 70q-18 4 -51 -2l-39 -6q-43 0 -43 24z" />
<glyph unicode="," horiz-adv-x="1216" d="M416 242q0 39 59 75q53 33 82 33q37 0 41 -24q74 31 88 30h21q12 -6 49 -45q75 -85 75 -278v-62q-8 -76 -81.5 -143.5t-141.5 -67.5q-18 0 -37 17q-76 -61 -112 -62q-33 0 -33 23q0 6 27.5 53t33.5 68q18 53 19 112q0 53 -29 140q-8 23 -37 77q-25 47 -24 54zM647 -98 v-45q0 -6 12.5 10t12.5 35q0 26 -4 61q-6 -14 -21 -61z" />
<glyph unicode="-" d="M262 741q0 131 483 205q319 49 543 49q121 0 146 -4q16 1 49 -22q2 -25 -28 -63t-64 -54q-14 -6 -43 -25q2 -6 2 -14q0 -41 -64.5 -87t-107.5 -46q-6 0 -76 9t-78 9q-2 0 -53 -8t-76 -8q-86 -2 -248 -47q-68 -25 -135 -49q-129 -45 -182 -45q-33 0 -66 18 q-12 51 55.5 110.5t118.5 59.5q16 0 20.5 -2t7.5 -12t11 -10q20 0 305 100q-2 2 -24 2q-147 -4 -308 -47t-145 -43q-43 0 -43 24z" />
<glyph unicode="." horiz-adv-x="1396" d="M369 0q-10 100 184.5 283.5t300.5 183.5q41 0 41 -25q0 -16 -26.5 -46.5t-45.5 -41.5q111 12 148 13q105 0 121 -23q8 -29 -25 -76q-23 -29 -45 -45q-332 -236 -590 -235q-43 0 -63 12zM688 170q4 -12 19 -12q30 0 96 61q-129 -8 -115 -49z" />
<glyph unicode="/" horiz-adv-x="1619" d="M299 96q0 12 38 81t66 102q113 119 263 311q135 180 272 360q166 223 487 629q20 25 62.5 46.5t71.5 21.5q36 0 36 -27q0 -23 -43 -84q-31 -41 -61 -82v-8q25 14 43 14q37 0 37 -28q0 -14 -66 -105q-33 -53 -100 -151q-268 -334 -797 -1004q4 -4 29 -6q14 -2 14 -21 q0 -41 -73 -96q-55 -43 -86 -53q-41 -14 -72 -14q-37 0 -53 20q0 29 24 78q-10 0 -29.5 -4t-25.5 -4q-37 0 -37 24z" />
<glyph unicode="0" horiz-adv-x="1624" d="M176 559q0 164 117 402q123 254 301 421q209 197 422 197q6 0 47 -6t47 -6q12 0 47 53q43 70 72 98q51 53 112 54q33 0 33 -25q0 -8 -68.5 -124t-68.5 -122q0 -2 35 -41q41 -45 61 -76q68 -104 111 -321q18 -94 18 -184q0 -309 -274 -555q-240 -215 -526 -265 q-4 -4 0 -16q6 -14 6 -18q0 -10 -27 -74q-8 -20 -31 -62q-20 -27 -61 -50t-70 -23q-20 0 -33 12q-6 57 17 121q20 53 39 106q-27 6 -71 25.5t-56 28.5q-33 18 -47 41q-16 45 -49 126q-16 16 -46 50q-14 20 -32 61q-25 84 -25 172zM459 494q0 -78 10 -93.5t33 -23.5 q35 -13 39 -15v21q-27 104 -31 137q-2 18 -2 109q0 131 2 159q-51 -248 -51 -294zM510 788h10v21h-10v-21zM653 1126q145 197 332 193q12 0 27 27l20 36q-53 35 -61 35q-31 0 -148 -80q-35 -23 -104 -96q-29 -31 -66 -115zM694 727q0 -74 8 -127q30 99 220 545 q-39 31 -64 31q-41 0 -90 -95q-39 -70 -43 -96q-31 -150 -31 -258zM784 401q0 -8 14.5 -23.5t22.5 -15.5q41 0 128 73t103.5 124t32.5 105q2 11 2 79q0 143 -63 283q-240 -592 -240 -625zM915 299q33 -14 29 -35q139 76 229.5 200t88.5 243q-12 -92 -127 -223.5t-220 -184.5 zM1120 1260q37 -27 60 -62q-18 47 -45 82q-2 -2 -7.5 -9t-7.5 -11zM1262 713h10v14h-10v-14z" />
<glyph unicode="1" horiz-adv-x="1091" d="M188 1219q0 23 48 92q78 113 192 219q139 127 209 117q12 -18 12 -45q0 -14 -5 -46t-3 -51q78 100 158 88q12 -8 8 -63q-6 -51 -12 -119v-20q12 -2 36 -7q8 -4 20.5 -45t12.5 -63v-774q0 -6 -4 -44t-4 -55q0 -53 -8 -161q-8 -47 -63.5 -87t-92.5 -40q-31 0 -30 22 q-2 41 -7 47q-49 -43 -94 -30q2 -10 2 -19q0 -47 -55 -91t-98 -44q-18 0 -31 14v465q0 6 4 25.5t4 23.5q23 256 51 732q4 45 11 104v35q-25 -14 -52 -56q-39 -63 -43 -69q-23 -27 -63.5 -51.5t-69.5 -24.5q-33 0 -33 21z" />
<glyph unicode="2" horiz-adv-x="1748" d="M174 195q-4 47 49 127q45 57 137 174q209 276 424 487q266 260 469 342q47 18 93 43q-45 125 -211 125q-113 0 -286 -59.5t-210 -108.5q10 -51 -53.5 -99t-118.5 -48q-35 0 -53 18q0 49 14 68q147 178 406 286q227 96 430 97q197 0 254 -109q45 -86 45 -164 q0 -94 -72 -241q-16 -33 -61.5 -66t-79.5 -41q-12 0 -35 -4q-162 -59 -363 -256q-164 -162 -303 -365q2 -4 6 -2q154 47 240 58q41 6 170 6q125 0 276 -17q191 -20 263 -55q2 -23 -28 -60.5t-60 -54.5q-16 -6 -48 -20q-2 0 -12 -29q45 4 135 -10q14 -47 -52 -100.5 t-114 -53.5q-8 0 -84.5 6.5t-85.5 6.5q-244 0 -626 -72q-37 -8 -166 -41q-106 -29 -131 -29q-27 0 -58 21q8 37 35 72q-25 14 -33 14q-6 0 -25.5 -6t-27.5 -6q-37 0 -37 26q0 78 172 140q27 10 23 45q-98 -63 -152 -64q-37 0 -55 19zM508 119h27q4 -2 112 22q119 25 172 31 q-10 0 -29.5 5t-25.5 5q2 0 -236 -45q-6 -2 -20 -18zM571 516q0 -8 9 -8q11 0 36 51q-45 -29 -45 -43zM778 821q98 70 279 217q6 18 26 52q31 36 76 69q-174 -106 -381 -338z" />
<glyph unicode="3" horiz-adv-x="1550" d="M201 248q0 164 147 209q12 2 41 0q12 -12 6 -72q-6 -66 0 -86q8 -20 13 -20q6 0 41.5 17t42.5 17q33 0 32 -26q0 -6 -14 -34t-16 -38q-2 -16 -9 -47q47 -39 105 -39q41 0 111.5 41t146.5 111q94 86 117 153q14 39 14 90q0 -6 2 39q4 33 -1 50.5t-18.5 50t-62.5 102.5 q-96 106 -217 106q-12 0 -151.5 -87t-168.5 -87q-39 0 -38 29q0 20 28 86q-4 23 0 35q16 43 74 88q47 37 96 72.5t396 380.5q-10 4 -31 2q-45 -12 -135 -31q-397 -57 -443 -57q-41 0 -41 22q0 25 45 70q-35 33 -34 37q0 33 49 71q35 29 69 43q12 4 135 27q53 12 162 35 q225 37 338 34h252q12 -12 12 -24t-28 -53q12 0 34.5 6t28.5 6q33 0 33 -23q0 -29 -25 -49q-207 -172 -489 -456q162 31 178 30q162 0 268.5 -98t106.5 -254q0 -217 -172 -403q-160 -172 -428 -283q-162 -68 -314 -66q-12 0 -40.5 -5t-34.5 -5q-57 0 -82 15q-6 2 -37 55 q-12 10 -41 39q-53 49 -53 174zM915 1241q51 39 119 111q52 51 103 125q-41 -37 -142 -136q-61 -63 -80 -100zM936 219q276 144 276 408q0 63 -30 131q-35 80 -86 108q72 -125 71 -239q0 -106 -57 -203q-49 -82 -174 -205z" />
<glyph unicode="4" horiz-adv-x="1599" d="M143 655q4 27 31 62t53 67q6 16 21 47q-12 31 -2 43q68 90 246 297q160 190 239 299q6 23 29 64q25 27 67.5 50.5t73.5 23.5q39 0 39 -21q0 -23 -66 -110v-7q8 8 146 86q16 18 47 50q33 25 96 53q6 2 25 2q37 0 37 -21q0 -6 -17 -30q-23 -31 -28 -43q-10 -18 -15 -88 q-6 -98 -14 -211v-350q55 4 160 -11q0 -57 -60 -92q29 -6 101 -4q66 2 96 -10q0 -14 -16.5 -44t-36.5 -36q18 -2 59 -14q-29 -92 -131 -121q-86 -14 -172 -27v-354q0 -6 5 -13.5t5 -13.5t-12 -106q-4 -35 -59.5 -72t-85.5 -37q-20 0 -33 12v562h-39q-6 0 -362.5 -42 t-362.5 -42q-47 0 -47 30q0 59 133 119q-16 0 -50 -3t-38 -3q-29 0 -43 10q0 -2 4 35q-6 2 -23 14zM346 745q68 8 232 33h-64q0 -8 -51 -6q-72 2 -84 2q-8 -2 -33 -29zM457 606l514 66h-115q-111 0 -106 2q-66 -8 -281 -39q-12 -18 -12 -29zM487 915q33 4 484 -2v275 q4 121 20 256q-70 -39 -139 -119q-53 -63 -104 -125q-166 -190 -261 -285z" />
<glyph unicode="5" horiz-adv-x="1658" d="M233 66q0 49 84 135q63 66 107 92q55 35 154 31q4 -2 10 -13q12 -135 51 -135q18 0 84 47q84 63 139 178q51 109 51 203q0 63 -55 156q-63 106 -135 106q-59 0 -109 -28q-59 -35 -116 -45q6 -53 -49.5 -105.5t-110.5 -52.5q-35 0 -43 27q-2 8 -4 57l-6 756q0 45 69 90 q61 37 95 37q25 0 29.5 -6.5t13.5 -51.5q31 25 62.5 47.5t68.5 22.5q29 0 44 -32t21 -32q-10 0 72 15q446 84 708 84q131 0 160 -2q23 -3 43 -23q10 -39 -55.5 -88t-108.5 -49q-6 0 -22.5 6t-24.5 6h-69v-4q27 -2 53 -6q39 -4 55 -21q12 -41 -53.5 -92t-108.5 -51 q-6 0 -19 5t-18 5q-86 14 -172 15q-100 0 -227 -23q-104 -20 -207 -41q2 -37 -2 -121q-4 -92 -4 -84q0 -14 6 -14q8 0 10 3l3 3q59 29 159 29q39 0 107 -12q78 -14 100 -31q219 -170 219 -357q0 -154 -139 -327q-119 -152 -295 -264q-168 -109 -274 -109q-6 0 -111.5 -3 t-112.5 -3q-127 0 -127 70zM487 1145q4 -49 15 -127q14 90 12 143q-2 49 -14 119q-16 -74 -13 -135zM961 326q51 57 79 127q22 55 47 116q8 -72 -24 -129q-23 -43 -102 -114z" />
<glyph unicode="6" horiz-adv-x="1406" d="M195 492q0 113 38 229q158 469 478 723l90 90q4 10 17 28.5t59 49.5q53 35 147 35q37 0 88 -19q70 -27 70 -69q0 -68 -92 -111q-68 -33 -117 -33q-37 0 -42 2t-24.5 13.5t-27.5 11.5q-49 0 -113 -158q-104 -270 -137 -483l4 -35q154 119 321 119q297 -1 297 -275 q0 -170 -166 -338q-150 -152 -286 -174q-6 0 -54 -39q-57 -47 -118 -65h-52q-102 0 -174 65q-41 37 -135 172q-20 29 -33 64q-39 123 -38 197zM377 590q0 -55 23.5 -132t43.5 -102q-12 133 -12 150q2 25 17 215q6 70 32 174q24 88 49 176q-47 -90 -94 -219 q-59 -168 -59 -262zM625 559q0 -150 65 -280h17q6 0 22 3t21 3q23 45 32 86q9 28 9 102q0 102 -37 193q-8 20 -17 20q-8 0 -14 -3t-12 -3q-20 0 -31 10q-43 -49 -51 -74q-4 -14 -4 -57zM903 291q0 -6 11.5 -20.5t11.5 -18.5q143 104 143 262q0 45 -29 111q-35 74 -77 92v-17 q0 -8 4 -24.5t4 -20.5q8 -139 -6 -202q-4 -27 -33 -93.5t-29 -68.5z" />
<glyph unicode="7" horiz-adv-x="1654" d="M213 1350q-4 27 31 64.5t69 55.5q-18 41 -18 37q0 47 65 95q59 41 101 40q6 0 24.5 -11t24.5 -11t68.5 10t85.5 10q39 2 245 2q242 0 391 -14q-2 0 74 2q53 2 64 -12q-2 -43 -23 -59q10 -20 33 -21l45 35t88 35q35 0 35 -23q0 -20 -45 -69q-33 -37 -66 -72 q-23 -25 -59 -88q-92 -154 -201 -363q35 -12 111 -45q8 -41 -58.5 -91t-109.5 -50q-16 0 -29 6q-37 -72 -108 -229q-41 -113 -123 -342q-102 -272 -244 -273q-35 0 -35 31q0 6 29 76q37 86 47 114q2 4 -2 9q-70 -53 -109 -54q-20 0 -32 13q-166 -188 -281 -189q-23 0 -47 19 q-2 45 8 63q51 94 428 756h-31q-49 -18 -96 -35q-94 -37 -135 -37q-39 0 -39 25q0 31 57 84q53 47 86 55q80 20 242 62q16 4 35 36q12 25 25 50q59 92 116 184q70 109 148 184q-25 4 -133 4q-188 0 -496 -49q-6 0 -82 -20q-55 -12 -104 -13q-47 0 -70 13zM514 219 q57 14 80 10q70 145 303 600h-35q-137 -233 -348 -610zM956 985h27q65 117 188 340q-127 -166 -215 -340z" />
<glyph unicode="8" horiz-adv-x="1466" d="M209 270q0 125 113 287q106 150 262 268q-174 33 -174 211q0 123 108 287q18 35 55 92q215 231 461 232q309 0 309 -248q0 -174 -237 -377q12 -4 23.5 -8t11.5 -21q0 -14 -39 -67q344 -31 344 -332q0 -94 -74 -217q-121 -207 -336 -314q-182 -92 -379 -92q-113 0 -237 45 q-152 53 -191 138q-20 43 -20 116zM406 375q0 -74 24 -109q39 -55 162 -102q115 -43 192 -43q41 -1 172 26q-102 -2 -260 11q-111 23 -170 84t-59 141q0 227 305 444q-109 -47 -225 -174q-141 -152 -141 -278zM631 1040q12 -27 61 -49q43 -18 76 -18q84 0 201.5 73.5 t152.5 155.5q-170 -166 -411 -166q-66 0 -80 4zM664 487q0 -80 96 -139q80 -49 149 -47h127q8 27 8 68q0 47 -20 120q-18 68 -35 97q-33 57 -90 92q-63 37 -92 37q-25 0 -74 -53.5t-57 -88.5q-12 -61 -12 -86zM676 1286q0 -45 63 -76q51 -25 97 -24q90 0 155 37 q41 33 115 75q27 11 41 11v30q0 27 -38 74t-73 60q-55 18 -80 18q-6 0 -29.5 -10.5t-29.5 -10.5q-35 -2 -94 -16q-127 -68 -127 -168zM1223 668q0 -10 12 -50q12 -45 16 -86q14 29 4 66q-10 43 -32 70z" />
<glyph unicode="9" horiz-adv-x="1253" d="M176 1030q0 205 176 381q156 156 340 195q18 8 56 22q49 18 106 19q70 0 145 -45q86 -53 119 -134q17 -44 17 -120q0 -39 -25 -105q-31 -78 -35 -100q-2 -57 -8 -170q-14 -186 -92 -375q-16 -47 -56 -145.5t-96 -184.5q-100 -156 -182 -155q-31 0 -31 24q0 -2 52 105 q16 16 43 45q51 80 98 237q10 20 26 60q45 168 64 280q-18 6 -20.5 -9t-4.5 -30q-25 -100 -49 -200q-37 -131 -76 -213q-84 -178 -176 -293q-61 -76 -131 -109q-27 -16 -55 -30q-37 -18 -62 -19q-33 0 -32 21q0 12 65 100q18 33 72 100q31 12 80 47q43 39 71 127 q39 129 45.5 149.5t16.5 69.5q20 70 31 150q6 68 14 137q4 25 49 62q6 2 2 10q-123 -70 -162 -86q-72 -29 -155 -29q-72 0 -86 6q-154 66 -154 205zM348 1120q0 -98 90 -145q-6 10 -15 64.5t-9 80.5q0 121 63 289q-51 -31 -92 -129q-37 -90 -37 -160zM584 1212q0 -37 14 -92 t30.5 -74.5t59.5 -19.5q49 0 66 31q10 57 24 225q13 154 13 170q0 12 -11 47q-27 0 -73 -6q-23 -14 -64 -37q-59 -178 -59 -244z" />
<glyph unicode=":" horiz-adv-x="1159" d="M205 0q-10 100 184.5 283.5t300.5 183.5q41 0 41 -25q0 -16 -26.5 -46.5t-45.5 -41.5q111 12 148 13q105 0 121 -23q8 -29 -25 -76q-23 -29 -45 -45q-332 -236 -590 -235q-43 0 -63 12zM207 768q-12 98 182.5 281.5t300.5 183.5q41 0 41 -23q0 -18 -25.5 -47.5 t-43.5 -42.5q109 14 145 15q105 0 123 -25q8 -29 -27 -74q-20 -29 -45 -45q-330 -236 -588 -235q-45 0 -63 12zM524 170q4 -12 19 -12q30 0 96 61q-129 -8 -115 -49zM526 936q4 -12 17 -12q30 0 98 61q-131 -6 -115 -49z" />
<glyph unicode=";" horiz-adv-x="1173" d="M270 713q-10 100 184.5 283.5t301.5 183.5q41 0 41 -25q0 -16 -27 -47t-45 -41q111 12 147 12q105 1 121 -22q8 -29 -24 -76q-23 -29 -45 -45q-332 -236 -590 -236q-43 0 -64 13zM319 242q0 39 60 75q51 33 82 33q35 0 41 -24q74 31 88 30h20q12 -6 49 -45 q76 -85 76 -278q0 -39 -2 -62q-6 -76 -80.5 -143.5t-140.5 -67.5q-18 0 -37 17q-76 -61 -115 -62q-33 0 -32 23q0 6 28.5 53t34.5 68q16 53 17 112q0 53 -29 140q-6 23 -35 77q-25 47 -25 54zM549 -98v-45q0 -6 12 10t12 35q0 26 -4 61q-6 -14 -20 -61zM590 883 q4 -12 18 -13q31 1 97 62q-129 -8 -115 -49z" />
<glyph unicode="&#x3c;" horiz-adv-x="1470" d="M209 709q0 23 74 100q47 49 96 100q631 737 778 738q35 0 35 -23q0 -18 -21 -45q-2 -2 -2 -8q29 -20 -2 -66q-27 -25 -73 -71q-119 -145 -238 -291q-145 -172 -264 -283q31 -221 348 -446q68 -49 244 -152q123 -70 123 -90q0 -41 -64.5 -83t-95.5 -42q-14 0 -68 33 q-27 18 -53 35q6 -37 -58.5 -87.5t-109.5 -50.5q-37 0 -139 93q-143 129 -254 297q-74 111 -94 145q-51 86 -68 141q-6 14 -18 39q-4 0 -17.5 -3t-21.5 -3q-37 0 -37 23z" />
<glyph unicode="=" horiz-adv-x="1794" d="M201 477q33 139 301 193q332 61 579 61q330 0 330 -59q0 -10 -29 -54q109 -18 234 -92q8 -39 -54.5 -86t-103.5 -47q-12 0 -84 33q-37 16 -71 33q-117 23 -183 22q-152 0 -480 -61l-329 -60q-39 0 -39 23q0 86 244 158q59 18 240 37q2 -2 -103 -3q-6 0 -32.5 -4t-36.5 -4 q-100 -4 -236 -65q-25 -12 -47 -27q-29 -14 -51 -14q-20 0 -49 16zM295 1006q-2 25 25.5 59.5t60.5 46.5q147 59 383 94q215 31 418 31q213 0 301 -23q6 -29 -43 -79q4 -10 29.5 -28t25.5 -36q0 -43 -70 -86q-57 -37 -86 -37q-14 0 -36.5 17.5t-45.5 25.5q-6 2 -81 2 q-188 0 -485.5 -39t-311.5 -39q-37 0 -55 13q0 25 26 61q-18 2 -55 17z" />
<glyph unicode="&#x3e;" horiz-adv-x="1558" d="M283 1434q0 47 61 90q55 37 90 37q41 0 123 -60q-8 51 57 103q61 45 109 45q12 0 18 -2q80 -150 202 -311.5t220 -250.5q76 -59 154 -116q121 -96 121 -125q0 -49 -115 -111q-6 -4 -47 -8q-180 -205 -361 -408q-311 -334 -403 -333q-33 0 -33 20q0 18 37 56t45 57 q-86 -70 -135 -70q-53 0 -53 43q0 37 170 184q92 76 184 154q66 70 262 264q-111 92 -375 430q-217 274 -331 312zM657 242q-12 -29 13 -13q4 4 61 80q-29 -23 -74 -67zM1141 856q0 -6 5 -23.5t5 -19.5l23 23q-2 2 -16.5 10t-16.5 10z" />
<glyph unicode="?" horiz-adv-x="1656" d="M172 1249q2 31 23 58q31 37 53 51q358 242 663 297q98 18 197 18q104 0 219 -37q158 -53 158 -141q0 -49 -41 -111q-31 -49 -223 -243q-51 -57 -162 -166q-92 -72 -209 -141q-92 -57 -162 -121q8 -2 43 -2q6 0 187.5 34.5t187.5 34.5q45 0 45 -22q0 -35 -47 -72 q-35 -27 -68 -39q-6 -2 -90 -20.5t-166 -36.5q-113 -25 -184 -25q-100 0 -100 47q0 25 45 82q37 47 61 68q-16 12 -16 22q0 23 50 73t56 67q70 170 125 460l-51 52l-10 -9q-66 -45 -105 -45q-49 0 -45 33t-2 33q-35 0 -35 -25q0 -6 16.5 -37.5t16.5 -37.5q0 -25 -33.5 -56.5 t-33.5 -36.5q-2 -20 -11 -55q-37 -72 -109.5 -117t-140.5 -45q-86 0 -86 76q0 57 37 119q-18 4 -53 16zM377 -61q0 25 20.5 56.5t40.5 61.5q41 66 122 147t147 122q270 164 352 163q37 0 37 -18q0 -14 -15 -37q16 -4 33 -8q27 -6 35 -25q2 -6 2 -14q0 -16 -21 -53 q-78 -135 -227 -256q-129 -104 -270 -168q-76 -35 -160 -35q-96 0 -96 64zM559 29q12 -12 33 -13q74 0 207 101q127 96 164 168h-25q-25 -8 -61 -31q-23 -27 -64 -66q-84 -55 -135 -55q-18 0 -35 17q-31 -41 -84 -121zM872 985q70 51 138 100q88 68 88 125q0 41 -33 105 q-37 74 -80 88q-10 -102 -113 -418zM1223 1473q25 -25 39 -68q10 -29 22 -59q12 39 12 51q0 27 -18 43q-10 8 -55 33z" />
<glyph unicode="@" horiz-adv-x="1964" d="M233 641q0 283 240 542t582 353q20 10 59 28.5t143 18.5q72 0 84 -2q25 -4 84 -33q27 -20 82 -57q37 -20 74 -39q66 -39 66 -66q0 -6 -14.5 -26.5t-14.5 -26.5q0 8 43 -86q68 -156 68 -293q0 -295 -254 -419q-14 -6 -58 -7q-10 18 -39 43q-59 23 -75 23q4 0 -119 -52.5 t-226 -52.5q-82 0 -141 25q-37 14 -49 37q-6 16 -6 63q0 168 180 347.5t369 179.5q23 0 45 -2v73q-2 23 -13 64q-14 55 -30 55q-4 0 -32 -11t-36 -11q-39 0 -39 43q0 6 6 41q-61 14 -127 14q-84 0 -112 -49q-43 -78 -125 -123q-16 -8 -74 -123q-45 -88 -67 -141 q-27 -70 -43 -144q-12 -53 -13 -112q0 -156 111.5 -264.5t292.5 -110.5q18 0 80.5 -10.5t68.5 -10.5t45 11.5t45 11.5q33 0 33 -23q0 -18 -22 -40v-1v-2h8q37 0 153 66q12 20 50 57q45 35 88 50q6 2 26 2q37 0 37 -33q0 -74 -166 -166q-334 -184 -647 -184q-90 0 -168 12 q-35 10 -115 33q-18 10 -51 28q-90 45 -174 150.5t-92 189.5q-2 6 -7 25.5t-7 30.5q-6 63 -7 104zM420 739q0 -106 59 -245q-16 49 -16 116q0 133 57 277q18 35 47 94q72 168 189 322q-104 -66 -205.5 -199t-118.5 -232q-12 -82 -12 -133zM1059 852q0 -12 8 -45 q8 -39 20 -45q45 -31 127 -31q70 0 88.5 24.5t34.5 78.5q13 45 13 59q0 35 -56 61q-47 25 -82 25q-45 0 -108 -25q-29 -10 -33 -26q-12 -41 -12 -76z" />
<glyph unicode="A" horiz-adv-x="1835" d="M213 27q0 12 41 147q43 147 78 232q156 356 461 1075q6 25 26 69q66 78 144 78q20 0 31 -24l10 -23q8 0 87.5 29.5t86.5 29.5q37 0 45 -26q88 -299 274 -899q158 35 164 35q47 0 47 -29q0 -35 -76 -96l-94 -70q16 -84 33 -84q6 0 99 32t102 32q34 0 34 -23 q0 -70 -215 -162q76 -197 76 -227q1 -53 -65 -103q-57 -44 -106 -44q-8 0 -15 1q-29 82 -103 308q-455 -119 -696 -205q-27 -8 -76 -29q-27 -18 -52.5 -34.5t-55.5 -16.5q-35 0 -35 35q0 43 41 165t41 144q0 8 -2 10q-49 -104 -99 -207q-84 -147 -190 -147q-41 0 -41 27z M825 373q183 141 457 268q-86 260 -160 533q-43 -119 -108 -291q-16 -39 -189 -510zM1184 369q27 6 82 17t80 17q-4 18 -13 46q-55 -31 -149 -80z" />
<glyph unicode="B" horiz-adv-x="1615" d="M205 1196q0 154 14 193q31 98 162 106q8 -6 8 -20l-8 -43q-4 -27 4 -46q12 88 66 166q62 90 141 90h10q12 -25 19 -81q4 -63 12 -86q127 63 266 84q96 16 268 16q61 0 103 -12q16 -14 53 -45q53 -41 63 -52q27 -27 27 -59q0 -78 -215 -246q-45 -35 -438 -332q2 -2 6 -2 q125 57 188 74q88 25 197 25q168 0 287 -47q190 -74 190 -248q0 -197 -299 -387q-35 -23 -127 -62q-68 -31 -205 -84l-67 -26q-45 -18 -64 -19q-29 0 -32 18.5t-5 18.5q-4 0 -35.5 -8t-45.5 -8q-6 -47 -62.5 -89t-101.5 -42q-8 0 -17 2q-18 14 -26 43q-33 139 -49 336 q-12 164 -23 325q-2 -18 -2 -131q0 -119 10 -194.5t10 -98.5q0 -33 -2 -43q-6 -37 -59 -72.5t-84 -35.5q-35 0 -51 45q4 16 8 47q-12 66 -35 188q-12 102 -37 308q-22 236 -22 510v24zM635 1296l6 -301q106 78 162 125q104 88 133 154q0 11 2 29q-55 43 -90 43 q-4 0 -213 -50zM647 864q20 -14 46 7.5t20 54.5zM662 481q0 -2 47 -344q51 59 92 88q63 43 198 115q152 80 187 80t35 -21q0 -18 -21 -47q103 80 103 125q0 25 -48 53q-33 23 -94 56q-143 43 -200 43q-25 0 -299 -74v-74zM686 678q117 36 289 106h-19q-53 0 -231 -79 q-16 -6 -39 -27zM827 1012q109 59 281 260q8 12 27 47q22 43 22 57q0 8 -41 25q1 -6 1 -12q0 -130 -281 -359q-2 -6 -9 -18zM975 784h14v9h-14v-9z" />
<glyph unicode="C" horiz-adv-x="1820" d="M258 379q0 150 135 440q121 262 385 494q272 240 514 284q16 8 51 19q147 31 197 31q76 0 189 -58v-5q1 -41 -59 -84q-64 -46 -109 -46q-6 0 -29 8t-29 8q-8 0 -26.5 -15t-22.5 -17q-315 -170 -489 -334q-137 -127 -181 -252q-53 -150 -53 -225q0 -6 9.5 -49t11.5 -62 q4 -43 60 -111.5t106 -82.5q113 -37 221 -37q113 0 286 47q162 43 287 98q18 8 39 8q35 1 35 -22q0 -55 -166 -146q16 -2 51 -14q0 -20 -2 -27q-49 -102 -196 -143q-111 -25 -220 -49q-20 -4 -57 -10q-307 -66 -457 -66q-481 0 -481 418zM555 831q162 293 682 627 q-31 -10 -53 -14q-92 -16 -223 -109q-59 -43 -148 -116q-162 -174 -258 -388z" />
<glyph unicode="D" horiz-adv-x="1703" d="M221 1376q0 141 2 152q4 37 62.5 78t93.5 41q31 0 31 -25q4 -45 6 -51q80 51 114 51q47 0 58 -45q6 -37 14 -76q190 82 356 82q217 0 453 -160q43 -18 131 -67q57 -45 82 -113q10 -25 27 -110q12 -27 30 -76q19 -80 19 -146q0 -102 -92 -247q-78 -123 -189 -236 q-12 -12 -88 -141q-33 -59 -89 -105.5t-99 -46.5q-39 0 -39 33q0 14 6 35v8q-55 -27 -158 -92q-4 -20 -26 -58q-81 -75 -137 -75h-1q-27 0 -24 0q-10 4 -23 34q-35 -52 -87 -86q-44 -29 -82 -29q-7 0 -13 1q-16 41 -24 121q-12 117 -19 149q-16 -63 -69.5 -101t-110.5 -38 q-18 20 -23 24q-8 121 -22 244q-45 371 -57.5 595t-12.5 476zM494 297q2 -29 10 -35q12 23 8 39t-14 43q-4 -20 -4 -37v-10zM715 549h8v29h-8v-29zM725 532q0 -139 10 -397q0 29 13 105q8 58 8 89v11q-12 63 -31 192zM813 1313q70 -289 123 -864q1 -18 1 -42.5t-1 -56.5 q-4 -82 -4 -88q150 133 258 277q23 27 45 51q27 33 27 51q0 100 -93 309q-84 188 -154.5 275.5t-178.5 87.5h-23zM1210 381q14 10 33 31q6 10 12 39q-8 -10 -26 -33q-8 -12 -19 -37zM1268 1260q45 -92 90 -187q53 -115 69 -186q25 69 25 106q0 53 -72 148q-55 70 -112 119z M1434 629q18 18 43 51q8 14 12 45q-6 -2 -27 -31q-10 -25 -28 -65z" />
<glyph unicode="E" horiz-adv-x="1781" d="M193 1206q-2 18 25.5 53t27.5 39q2 49 14 158q6 39 63.5 76t90.5 37q31 0 30 -25v-11v-9q0 -10 7 -11q8 0 29.5 8.5t29.5 8.5q35 0 42 -26.5t15 -26.5q2 0 86 28q94 33 154 45q96 23 287 62q209 35 297 35q61 0 75 -19q-2 -27 -30.5 -65.5t-63.5 -55.5q33 0 96.5 3 t65.5 3q74 0 102 -16q1 -7 1 -13q0 -47 -62 -95q-61 -51 -109 -52q-33 0 -34.5 16.5t-32.5 16.5q-100 0 -410 -74q-37 -8 -258 -88q0 -172 23 -272l360 74q276 53 436 53q35 0 54 -12q-6 -66 -74 -135.5t-133 -69.5q-8 -4 -25.5 -6t-50.5 -6q-203 -49 -244 -62 q-180 -53 -311 -127q16 -131 25 -182q18 -113 45 -201q150 70 251 109q115 45 222 75q78 31 157 62q125 47 185 47q33 0 51 -12q0 -41 -48 -74t-91 -39q-80 -12 -150 -41q-57 -23 -115 -45q25 -8 107 -10q68 -2 88 -23q0 -31 -25 -57q-41 -45 -116 -70q-61 -16 -123 -32 q-145 -49 -453 -150q-139 -43 -147 -43q-39 0 -39 23q0 18 22 41q-10 2 -35.5 -2.5t-33.5 -4.5q-18 0 -19 13q-8 129 -24 198q-14 53 -29 107q0 -14 8 -131q2 -34 2 -64q0 -44 -4 -78q-5 -37 -71 -79q-56 -35 -90 -34q-7 0 -13 1q-45 102 -45 278q0 66 -8 193q-6 135 -8 198 q-3 200 -3 335q0 180 5 243q-29 -2 -51 10zM717 1409l6 -66q104 43 297 125q-125 -14 -195 -32q-86 -23 -108 -27zM856 166q53 18 191 63q78 25 170 88q-47 -8 -205 -67q-104 -45 -156 -84z" />
<glyph unicode="F" horiz-adv-x="1597" d="M197 981q0 186 12 256q6 33 88 92q31 23 35 51q4 45 14 133q8 49 84 101q66 46 106 46q6 0 11 -1q8 -12 12 -107q0 -25 4 -43q176 82 416 138q256 61 453 61q72 0 90 -12q1 -4 1 -8q0 -58 -104 -113q10 0 34 3t30 3q35 0 35 -22q0 -29 -56 -74q-45 -37 -73 -45 q-137 -37 -385 -127q-45 -12 -132 -41q-49 -18 -219 -96q2 -27 11 -125q8 -78 8 -121q0 -4 6 -15q45 23 131 60q340 96 541 123q14 2 55 12q35 8 43 8q37 0 37 -20q0 -70 -201 -146q-133 -51 -207 -78q4 -4 13 -2q326 96 452 101q10 0 33.5 7t30.5 7q32 1 32 -22 q0 -39 -67 -86q-53 -39 -84 -45q-37 -2 -105 -9q-131 -20 -348 -88q-205 -63 -348 -123q2 -152 19 -434q2 -14 11 -68.5t9 -60.5q0 -47 -60.5 -90t-111.5 -43q-10 0 -18 2q-12 16 -37 111q-23 86 -29 86q-2 0 -47 -31q-39 -26 -71 -26q-11 0 -21 3q-8 14 -27 35 q-12 2 -26.5 5t-18.5 16q-2 53 -8 94q-14 74 -41 313q-12 184 -12 455zM627 1432q6 -47 6 -64q158 70 194 86q125 53 213 76q-6 6 -22 6q-39 0 -123 -27l-104 -28q-31 -10 -164 -49z" />
<glyph unicode="G" horiz-adv-x="1994" d="M213 457q0 373 344 643q66 74 205 215q94 90 239 178q135 82 236 115q115 39 315 39q100 0 166 -15q29 -14 80 -30q25 -33 25 -52q0 -47 -76 -96q-68 -41 -100 -41q-41 0 -56 25q0 6 -5 17t-67.5 23.5t-97.5 12.5q-139 0 -250 -33q-37 -12 -172 -92q4 -4 15 0 q92 25 184 49q164 45 229 45q39 0 60 -12q-4 -61 -86 -111q-23 -14 -125 -59q-393 -172 -471 -399q-14 -33 -35 -101q-14 -77 -16 -77v1v4q2 0 10 -65q0 -25 10 -72q53 -137 166 -192q86 -41 229 -41q137 0 258 47q0 190 -22 315q-172 -86 -350 -86q-66 0 -97 21 q12 72 134 139q94 45 186 90q33 8 82 43q12 35 45 109q25 51 115 90q18 8 61 8q14 -31 18 -78q2 -53 7 -67q23 4 57 14q76 47 115 47q35 0 41 -10q2 -18 4 -31.5t16 -13.5q6 0 18.5 3t20.5 3q41 0 41 -23q0 -35 -84 -100q16 -453 16 -496q29 18 58 19q35 0 35 -27 q0 -8 -10.5 -27.5t-12.5 -27.5q-23 -78 -93.5 -145.5t-133.5 -67.5q-25 0 -35 6q-8 -18 -8 -33v-7q0 -64 -69 -117q-62 -48 -112 -48q-9 0 -18 2q-20 49 -20 103q0 15 2 30q-6 4 -15 3q-291 -66 -491 -66q-322 0 -514 104q-35 18 -92.5 89t-69.5 110q-10 20 -24.5 63.5 t-14.5 133.5zM559 662q20 137 133 294q117 167 273 263q-68 -16 -168 -70q-39 -20 -95 -62q-143 -180 -143 -425zM942 190q33 -23 109 -23q14 0 30 1q123 18 361 41l2 55l-19 2q-164 -31 -483 -76z" />
<glyph unicode="H" horiz-adv-x="1814" d="M229 532q0 55 7 240l20 639q0 4 -8 16q-1 5 -1 10q0 51 53 97q58 52 106 51q6 0 15 -6t13 -6q-4 0 10 8q60 53 110 53q10 0 19 -2q23 -35 33 -94q37 -215 56 -707q2 0 3 -2t9 -2q274 98 305 99h188v671q0 35 68 76q59 37 86 37q18 0 33 -12l-6 -273q0 -111 8 -231 q14 39 26 137q16 117 23 135q8 39 63.5 76t87.5 37q39 0 39 -35v-381q0 -205 45 -555q29 -223 60 -446q2 -14 11 -52t9 -44q0 -37 -47 -76t-86 -49h-41l-16 16l-86 612q-10 -172 -39 -489q-3 -39 -71 -81q-55 -34 -87 -34q-8 0 -14 2q-2 4 -10 13q-6 236 -23 604 q-2 14 -10 30q-41 -10 -70 -10q-94 0 -217 -39q-104 -33 -209 -65q4 -139 15 -371q0 -8 10 -45t10 -45q0 -33 -41 -71t-78 -50q-20 -6 -55 -6q-31 53 -33 102q-4 137 -12 424q-2 0 -3 3t-9 3q-37 0 -37 -45q0 -14 5 -38.5t5 -28.5v-215q0 -23 -53 -64q-43 -33 -64 -41 q-27 -10 -63 -6q-25 20 -27 45q-35 281 -35 481zM467 553q13 12 25 12v27h-25v-39zM469 735h8v43h-8v-43zM729 737q23 -14 10 -45q86 33 252 90h-51h-5q-62 0 -206 -45z" />
<glyph unicode="I" horiz-adv-x="1490" d="M176 1313q2 45 68 90q47 35 104 53q72 35 213 96q-1 60 67 112q57 44 99 44q8 0 16 -2q12 -14 11 -47v-47q2 -10 8 -10q23 0 84 44t96 44q27 0 31 -13q0 -2 2 -43q29 0 87 3t60 3q61 0 88 -16q0 -29 -28 -61h69q41 0 62 -21q1 -5 1 -9q0 -37 -56 -77q-62 -45 -97 -45 q-6 0 -18.5 5t-18.5 5q-49 0 -149 -10q-16 -391 -17 -612q0 -6 3 -54q0 -53 2 -75q2 -133 45 -410q8 -4 39 -4q6 0 48 3t50 3q51 0 69 -12q0 -59 -59 -94q25 -6 79 -6h9q3 0 6 1q57 0 86 -10q1 -4 1 -7q0 -33 -49 -75q-54 -47 -91 -49q-94 0 -295 -12q-104 -12 -338 -45 q-209 -31 -213 -31q-45 0 -63 12q-1 4 -1 9q0 44 91 104q0 49 67 98q52 40 92 40q7 0 13 -1v852q0 4 6 107q8 121 10 186q-55 -12 -192 -47q-119 -31 -125 -31q-39 0 -39 19q0 12 10 28q-12 2 -43 15zM756 223q22 5 55 13q-33 195 -37 299q-15 -200 -18 -200v1v-113z" />
<glyph unicode="J" horiz-adv-x="1771" d="M193 444q0 55 2 60q39 104 241 223q197 115 326 115q68 0 84 -21q2 -18 -4 -53q-12 -27 -107 -139q-76 -90 -76 -148q0 -74 21.5 -116.5t87.5 -100t119 -74.5q41 -14 63 -14q94 0 94 442q0 143 -26 355q-35 287 -41 385q-35 1 -68 1q-66 0 -123 -3q-8 -2 -119.5 -44 t-142.5 -42q-45 0 -45 24q0 37 50.5 89.5t88.5 58.5q121 18 365 125q55 10 162 47q12 20 43 59q74 63 129 64q35 0 39 -32t24 -32q6 0 114 25.5t116 25.5q43 1 43 -24q0 -29 -37 -62q-29 -25 -57 -47q25 -4 69 -16q0 -57 -80 -109q-68 -43 -133 -51q33 -170 64 -340 q30 -178 30 -318v-9q0 -268 -116 -521q-4 -37 -29 -104q-29 -41 -80 -76q-2 0 -88 -29q-27 -14 -86 -45q-98 -45 -244 -45q-164 0 -256 45q-160 78 -276 195q-141 141 -141 276zM401 557q0 -20 50 -137q-4 35 55 117q51 67 102 135q-66 -8 -202 -92q-4 -10 -5 -23zM1044 96 h33h4q99 0 99 92q0 29 -9 58q-25 -66 -127 -150z" />
<glyph unicode="K" horiz-adv-x="1865" d="M250 961q0 418 26 591q6 39 69 82t101 43q35 0 35 -39q0 -14 -5 -38.5t-7 -28.5v-17q10 2 19.5 34t21.5 46q27 35 83 65q43 23 74 23q9 0 17 -2q4 -4 10 -14q35 -199 72 -735q0 -12 8 -35q162 197 459 563q37 27 94 86q76 104 164 105q39 0 39 -27q0 -45 -72 -107 q4 -8 2 -28q-55 -156 -352 -547q72 -145 227 -426q127 -168 338 -459q12 -8 35 -24q1 -5 1 -10q0 -46 -67 -95q-63 -49 -112 -49q-20 0 -29 2q-33 35 -88 123q-41 61 -67 96q0 -16 16 -55t16 -45q0 -31 -46 -74t-85 -57q-22 -7 -49 -7q-11 0 -22 1q-180 391 -336 766 q-27 -27 -45 -54q31 -14 30 -30q0 -8 -12 -40t-12 -40v2q1 0 10 -100q8 -96 29 -291q23 -14 22 -31q0 -37 -61 -88q-45 -37 -82 -51q-14 -6 -76 -6q-4 2 -12 12q-16 207 -39 461l-10 10q-2 0 -9 6q-2 -26 -2 -67t2 -97q7 -114 9 -114v2q0 -78 -19 -105q-27 -45 -131 -90h-45 q-25 37 -31 55q-106 326 -106 949zM565 539h13v65h-13v-65z" />
<glyph unicode="L" horiz-adv-x="1708" d="M242 1286q0 117 2 123q14 51 80 93q57 37 97 37q6 0 11 -1q10 39 58.5 85t87.5 56q33 8 40 9q37 0 37 -37q0 -6 -11 -39t-11 -47q-27 -254 -27 -275v-41h2q33 137 43 254q6 63 74 121q61 51 113 51q29 0 34 -9t5 -38q0 -6 -13 -121q-14 -131 -18 -186q-33 -424 -33 -637 q0 -96 43 -410q-4 -4 10 -4q723 313 797 314q47 0 47 -25q0 -31 -37 -63q-25 -20 -51 -41q6 -4 31 -9q14 -4 14 -20q0 -47 -96 -111q-59 -35 -119 -69q-25 -2 -63 -10q-162 -53 -289 -107q-139 -57 -205 -117q-6 -23 -29 -61q-57 -49 -75 -62q-35 -22 -78 -22h-4q-6 0 -32 4 t-38 4q-29 29 -18 53q-2 2 -15 2q-8 0 -63.5 -25.5t-63.5 -25.5q-29 0 -37 25.5t-16 48.5q-16 0 -33 2q-25 0 -37 14q0 33 -6 84q-35 299 -69 600q-39 379 -39 633z" />
<glyph unicode="M" horiz-adv-x="2623" d="M180 -100q0 41 92 436q80 338 131 543l60 165q49 154 131 316q20 43 68 131q33 51 108 78q16 2 51 8q37 27 115 68q6 2 41 2q10 -10 22 -31q2 -6 -3 -22.5t-5 -18.5q-1 -14 -1 -30q0 -48 9 -118q61 -457 125 -841q59 176 95 266q59 141 143 297q4 4 65 74 q141 158 248 254q39 20 103 55q23 25 75 65q90 49 142 50q23 0 40 -17.5t17 -32.5q0 -6 -20.5 -41.5t-20.5 -44.5q0 8 334 -876q10 -29 45 -172q80 -347 84 -347v1q0 -45 -76 -90q-63 -41 -90 -41q-33 0 -37 24q-6 43 -12 49q-20 -39 -67.5 -70.5t-84.5 -31.5q-27 0 -49 37 q-16 31 -30 61q-25 43 -62 127q-86 326 -192 858q-367 -700 -367 -727q0 -4 11.5 -18t11.5 -29q0 -59 -76 -106q-61 -37 -101 -37q-6 0 -21 3t-22 3q-14 0 -24 -16q-27 -37 -73 -69t-83 -32q-8 0 -16 2q-20 29 -23 54q1 9 1 19q0 32 -5 79q-49 225 -86 489q-51 373 -67 471 q-45 -154 -113 -440q-96 -414 -96 -549q0 -6 11 -17t11 -20q0 -6 -4 -21.5t-4 -21.5q-2 -74 -68 -129q-57 -51 -106 -51q-20 0 -33 12q-1 27 -1 55q0 216 67 527q80 322 159 641q4 4 0 14q-29 -59 -82 -247q-109 -377 -165 -709q6 -14 8 -45q-18 -100 -72 -172 q-57 -82 -131 -82q-35 0 -35 29zM657 1128h11v15h-11v-15zM1438 989q33 57 92 150q23 35 41 80q-27 -20 -78 -93q-27 -68 -55 -137zM1456 709q53 74 139 247q81 160 97 226q-45 -66 -131 -221q-66 -133 -105 -252z" />
<glyph unicode="N" horiz-adv-x="1607" d="M233 184v637q0 141 23 422q10 125 33 225q6 31 78 93q100 86 143 86t74 -66q121 -301 243 -602q158 -381 326 -633q2 2 2 19q-14 106 -35 303q-14 162 -30 473q-14 262 -15 293q0 72 15 94q23 37 114 78q4 2 41 2q2 -2 8 -13q2 -115 13 -227q45 123 84 178 q68 101 156 101h5q10 -14 23 -105q2 -4 6 -14.5t4 -18.5q0 -37 -58.5 -78.5t-58.5 -48.5q-33 -166 -53 -344q-16 -139 -31 -280q-2 -10 -2 -135q0 -150 11.5 -205.5t11.5 -138.5q0 -70 -2 -80q-12 -57 -125 -107q1 -5 1 -10q0 -48 -67 -98q-66 -47 -112 -47q-41 0 -101 83 q-31 49 -61 99q-39 59 -170 297q-104 182 -305 542q-8 -25 -8 -55v-608q0 -59 22 -158q12 -2 41 -16v-9q1 -55 -65 -116q-61 -57 -115 -57q-9 0 -18 2q-14 12 -17 28q-29 145 -29 215zM436 1294q15 7 31 19q-14 23 -23 51q0 -10 -4 -34.5t-4 -35.5zM1139 135q29 -25 43 -29 q-4 8 -7.5 27t-5.5 27q-8 -4 -30 -25z" />
<glyph unicode="O" horiz-adv-x="1740" d="M188 537q0 225 119 446q162 301 391 461q10 14 27 39q63 92 186 145q39 18 66 19q33 0 33 -21q0 -8 -25 -47q24 -2 55 -2t70 2q98 4 123 4q109 0 180 -31q25 -10 92 -90q121 -137 121 -444q0 -154 -22 -268q-4 -23 -56 -207q-43 -154 -235.5 -339.5t-349.5 -223.5 q-14 -12 -45 -31q-72 -37 -117 -37q-37 0 -64 16q-35 18 -47 21q-41 0 -117 14q-207 78 -305 250q-80 141 -80 324zM360 627q0 -106 43 -219q48 -129 132 -201q-20 53 -54 145q-6 45 -22 121q-36 123 -36 232q0 16 1 32q-20 -10 -53 -10q-10 -82 -11 -100zM627 700 q0 -106 12 -151q20 -88 115 -176q20 -20 125 -82q-2 -35 -45 -72q-31 -20 -60 -43q10 -25 37 -57q33 -41 57 -41q8 0 47 5t52 5q55 6 67 23q47 63 111 204q41 97 41 285q0 119 -6 137q-133 342 -308 652q-41 -33 -81 -66q-51 -41 -62 -80q29 -4 29 -20l-6 -17 q-25 -25 -58 -65q-14 -33 -35 -154q-32 -179 -32 -281v-6zM1198 1438q68 -213 82 -264q43 -158 70 -328q16 -45 43 -121q8 -43 18 -129q43 127 43 332q0 166 -51 305q-70 188 -205 205zM1294 319q83 124 103 222q-23 -18 -54 -58z" />
<glyph unicode="P" horiz-adv-x="1441" d="M233 995q0 -2 2.5 38t2.5 104q2 74 2 219q0 41 61 86q57 39 94 39q45 0 45 -58q0 -20 -10 -34l2 -64q14 94 64 164q57 82 137 82q6 0 17.5 -5t17.5 -5q4 0 23.5 16t25.5 20q45 25 135 68q76 29 119 33q186 20 293 20q82 0 135 -51q61 -57 61 -160q0 -35 -6 -73 q-1 -7 -1 -19q0 -26 5 -76q10 -81 10 -79q0 -242 -229 -447q-205 -182 -496 -256q6 -147 31 -352q8 -2 27 -17q0 -8 -5 -23t-5 -28q1 -59 -61 -106q-57 -43 -111 -43h-9q-18 18 -22 43q-27 152 -33 391q-8 270 -20 381q-14 -188 -15 -250v-293q0 -18 2 -58t2 -63 q0 -174 -176 -190q-14 18 -29 53q-14 80 -34 225q-20 242 -43 486q-8 117 -9 282zM700 1403q12 -182 29 -529q53 63 115 84q25 2 61 9q23 8 57.5 61t38.5 92q3 23 3 33q0 47 -31 115.5t-68 93.5q-23 14 -65.5 27.5t-53.5 13.5h-86zM727 735q0 -10 10 -10q27 0 90 82 q-100 -47 -100 -72zM918 741q10 0 92 39q100 47 141 92q62 68 119 242q-31 -33 -168 -176q-188 -197 -184 -197zM975 1540q94 -31 102 -37q119 -102 119 -246q0 -33 -6 -73q65 92 65 123q0 8 -10 25.5t-10 23.5q-16 66 -88 129t-131 63q-6 0 -21.5 -4t-19.5 -4z" />
<glyph unicode="Q" horiz-adv-x="2078" d="M213 451q0 -4 10 104q8 100 10 121q10 74 29 131q172 535 545 770q121 76 199.5 103.5t177.5 27.5q176 0 315 -100q160 -117 209 -328q14 -59 14 -240q0 -102 -34 -217q-6 -29 -27 -90q-10 -20 -47 -86q-29 -53 -29 -61t37 -47q45 -51 55 -66q205 -277 410 -371 q1 -5 1 -11q0 -36 -60 -81q-68 -51 -111 -51q-33 0 -111 53q-72 47 -110 90q-20 -23 -64 -69q-59 -55 -123 -56q-41 0 -139 92.5t-100 92.5q-41 0 -51 -6q-303 -221 -566 -222q-100 0 -204 46q-94 39 -193 239q-43 88 -43 232zM446 510q0 -37 31 -178q10 -41 33 -62 q108 -102 217 -112q-113 133 -113 561q0 203 15 321q6 45 20 136q-92 -117 -151 -332q-51 -186 -52 -334zM817 827q0 -188 39 -381q10 -57 66 -151q18 -31 34 -31l36 22q36 21 65 21q39 0 39 -26q0 -14 -13 -39q61 33 88 55q-16 23 -75 121q-61 109 -62 129q0 37 63.5 84 t104.5 47q31 0 51 -35q15 -35 31 -68v119q-2 -18 -10 41q-33 250 -252 516q-23 31 -44.5 58.5t-51.5 27.5q-8 0 -30 -4t-30 -4q-49 -225 -49 -502zM1053 1550q20 -20 61 -51q12 -4 64 -8q41 -2 53 -18q-6 -35 -29 -68q152 -178 228 -365q-6 6 -7 19q0 25 24.5 57.5 t53.5 46.5q-16 98 -110 215q-106 131 -222 152q-10 2 -41 12q-27 8 -35 8h-3h-37zM1468 895h11v16h-11v-16zM1475 893l6 -70h10l-6 70h-10z" />
<glyph unicode="R" horiz-adv-x="1669" d="M176 1313q0 45 70 88q59 39 94 39q16 0 25 -4q10 -14 22 -66q41 31 72 43q20 4 57 17q51 43 143 110q63 39 150 76q47 18 92 29q12 2 127 2t146 -11q72 -25 90 -125q0 -8 24 -38q37 -49 37 -123q0 -141 -76 -263q-45 -76 -178 -213q30 2 73.5 2t102.5 -2 q180 -29 279 -229q73 -155 73 -323q0 -51 -2 -68q-8 -68 -49 -128t-41 -58q0 -6 12.5 -36t12.5 -36q0 -29 -43 -69t-80 -54q-20 -6 -59 -6q-45 98 -303 639q-8 16 -58 86q-39 55 -39 84q0 12 4 18t9 13q4 4 -7 4q-6 0 -45 -24.5t-61.5 -47.5t-50.5 -66q-23 -35 -72 -63 q-66 -39 -65 -39q0 -12 4 -40t4 -34v-346q0 -25 -52.5 -64.5t-70.5 -43.5q-29 -8 -37 -9q-23 0 -35 15v327q-14 145 -39 441q0 -2 -6 -10q0 -35 -6 -114t-6 -81q0 -8 14 -223t14 -221q0 -39 -53 -82q-45 -39 -88 -49q-4 -2 -41 -3q-16 14 -18 31q-37 346 -47 719 q0 123 -6 477q0 31 -8.5 89.5t-8.5 62.5zM596 1260q0 -6 8 -70q10 -70 12 -92q10 -139 27 -416q86 123 248 369q2 4 2 45q0 106 -64 151q-84 59 -161 60q-6 0 -33 -3.5t-39 -3.5v-40zM647 610q8 -14 8 -32q7 12 27 32h-35zM825 1458q127 -4 228 -117q14 30 14 48t-78 59 q-70 37 -86 37q-10 0 -41 -12.5t-37 -14.5zM1061 1028q27 23 57 66q4 18 4 86q-14 -20 -41 -78q-12 -35 -20 -74zM1223 664q55 -118 170 -345v19q-55 231 -170 326z" />
<glyph unicode="S" horiz-adv-x="1576" d="M164 801q0 256 147 469q164 236 469 344q94 33 277 33q92 0 114 -9q6 -2 14.5 -21.5t16.5 -19.5q6 0 14.5 3.5t16.5 3.5q18 0 27 -2q125 -150 124 -187q0 -45 -75.5 -127t-124.5 -92q-63 -14 -94 -14q-115 0 -115 108q0 78 26 129q2 -2 -51 -2q-6 0 -38.5 15.5 t-41.5 15.5q-66 0 -133 -115q-121 -213 -133 -499l10 -11q41 41 160 79t207 38q158 0 223 -27q256 -110 256 -360q0 -162 -170 -320q-139 -131 -350 -225q-193 -84 -301 -84q-53 0 -94 15q-10 10 -33 26q-43 0 -123 23q-33 20 -33 86q0 123 136.5 268t238.5 145q41 0 41 -24 q0 -8 -19.5 -40t-19.5 -40q0 -61 33 -121q31 -51 59 -102q78 27 136.5 90t58.5 129q0 78 -53.5 187.5t-124.5 160.5q-23 4 -68 10q-4 0 -10 11.5t-14 11.5q-23 0 -91 -31q-6 -45 -67.5 -113.5t-114.5 -83.5q-14 -2 -74 -22q-47 -16 -57 -16q-14 0 -51 24q-18 8 -39 19 q-33 18 -47 38q-6 20 -23 58q-22 49 -22 158v10zM375 913q0 -72 22 -147q2 377 262 670q-123 -47 -203.5 -200t-80.5 -323zM1098 217q151 96 151 225q0 47 -22 115q4 -27 4 -53q0 -143 -133 -287z" />
<glyph unicode="T" horiz-adv-x="1611" d="M0 1157q0 45 92 105q51 31 105 59q135 86 235 127q43 14 84 27q53 18 82 41q8 25 31 65q80 86 153 86q45 0 45 -25q0 -10 -9 -34.5t-9 -36.5q0 -8 4 -17q8 4 43 9q88 104 168 104q31 0 35 -16q2 -2 4 -52l309 15q182 0 197 -29q4 -23 -13 -57q23 -5 74 -19q1 -4 1 -9 q1 -33 -61 -86q-70 -60 -100 -60h-260q-20 0 -168 -31q16 -242 56 -696q12 -72 35 -215q14 -133 14 -262q0 -94 -19 -125q-27 -45 -139 -93h-47q-6 4 -14 15q0 90 -3 181t-22 196q-27 -131 -51 -291q-8 -55 -80 -110.5t-123 -55.5q-43 0 -53 27q-20 51 -33 131 q-14 100 -14 270v604l6 92q8 109 12 207q-6 2 -12 2q-23 0 -55 -24q-61 -47 -66 -50q-96 -47 -198 -47q-41 0 -60 21q8 106 205 170q152 49 199 84q10 6 -7 6q-6 0 -53 -19q-70 -23 -203 -75q-61 -37 -120 -72q-109 -63 -154 -64q-43 0 -43 27zM772 903q40 291 43 291v-2v88 h-24q-6 -127 -19 -377z" />
<glyph unicode="U" horiz-adv-x="1492" d="M168 518q0 141 37 414q33 223 63 448q4 25 0 41q-4 6 -14 19q-1 4 -1 7q0 38 56 83q53 45 103 53q14 63 80 113q55 45 100 45q35 0 35 -31v3q-3 0 -23 -103q-24 -132 -24 -429v-24q0 -393 12 -545q14 -92 39 -266q8 -53 20 -168h49q33 2 33 -20q0 -6 -2 -17q6 -4 41 -4 q57 0 135 23q72 23 90 41q-6 152 -55 501q-49 330 -49 508t14 260q6 42 78 88q58 37 96 37q9 0 17 -2q14 -23 14 -65q-3 -48 -3 -69q0 -11 1 -15q33 25 66.5 48.5t68.5 23.5q20 0 33.5 -18.5t13.5 -31.5v-256q0 -8 43 -476t43 -476q0 -125 -39 -180q-14 -20 -65 -53 q-18 -4 -49 -23q-8 -20 -31 -57q-77 -81 -152 -81q-7 0 -14 1q-4 4 -12 14v16q0 86 -19 187q-106 -59 -182 -80.5t-190 -21.5q-164 0 -256 45q-35 16 -107 120q-94 139 -94 373zM371 705l6 -197h10l-6 197h-10z" />
<glyph unicode="V" horiz-adv-x="1773" d="M57 1505q0 66 61.5 114t133.5 48q14 -29 15 -83t14 -77q0 29 6 84q6 43 73 86q59 39 97 39q37 0 45 -26q23 -55 176 -555q109 -358 235 -584q41 90 103 262q33 78 88 238q47 168 184 479q18 45 60 119q68 80 151 80q43 0 43 -25q0 2 -41 -78q-33 -63 -108 -252 q-18 -45 -39 -88q-18 -53 -23 -104q84 162 170 323q141 236 262 236q37 0 37 -25q0 -20 -31 -55q-20 -23 -39.5 -47.5t-50.5 -73.5q-2 -2 -227 -428q-166 -313 -295 -518q-18 -29 -55 -107q-45 -98 -45 -131q0 -6 13 -25.5t15 -27.5q4 -10 -4 -27q-10 -29 -12 -32q5 1 10 1 q33 0 33 -40q0 -51 -61.5 -101.5t-116.5 -58.5q-78 -121 -189 -121q-67 0 -67 46q0 7 11 38t13 41q-14 0 -37.5 -7t-29.5 -7q-49 0 -113 135q-29 72 -55 143q-123 258 -215 529q-55 129 -150 397q-45 158 -45 266zM666 481q0 -27 49 -119q32 -59 65 -118l19 26 q-45 86 -111 238z" />
<glyph unicode="W" horiz-adv-x="2203" d="M61 1516q0 33 50 73q43 37 88 49q10 2 32 4q25 33 68 61t78 28q47 0 53 -25q12 -76 43 -229q61 -283 193 -846q0 -4 6 -15q252 631 252 641q0 23 -15 82q-2 8 -16 21.5t-14 21.5q0 49 90 111q25 6 67 25q39 47 113 110q18 10 51 23q10 2 43 2q12 -16 27 -54 q10 -133 104 -495q33 -90 92 -270q90 -276 168 -443q25 63 78 217q100 285 295 895q6 25 27 70q18 27 64 53.5t77 26.5q37 0 37 -23v1q-4 0 -94 -298q-145 -483 -310 -901q-87 -222 -92 -222v1q0 -4 45 -85t45 -91q0 -47 -67 -90q-59 -37 -90 -37q-23 0 -30 11t-11 11 q-8 0 -34 -9t-32 -9q-41 0 -43 20v-3v137q-23 -53 -82 -87q-48 -28 -90 -28q-10 0 -20 2q-51 78 -93 237q-18 31 -47 97l-86 270q-72 231 -110 410q-33 -63 -127 -314q-100 -272 -101 -317q0 -59 29 -143q0 -2 10.5 -11.5t10.5 -21.5q0 -57 -60.5 -109.5t-107.5 -52.5 q-6 0 -14.5 2t-14.5 2q1 0 1 -1q0 -6 -47 -52q-54 -53 -114 -53q-51 0 -69 69q-127 498 -252 1274q-6 39 -31 160q-23 111 -23 117zM434 719q8 -98 47 -262l62 -258q2 2 12 16.5t10 22.5q0 25 -41 200q-49 209 -90 281zM1386 383q-2 -16 19.5 -80.5t19.5 -87.5 q10 -20 41 -92q8 0 21 -4q29 -16 20 -31l7 5q6 5 6 13t-52 117q-66 137 -82 180v-20z" />
<glyph unicode="X" horiz-adv-x="2048" d="M188 1532q0 47 68 90q59 37 94 37q18 0 39 -12q63 86 148 86q49 0 151 -131l141 -183q80 -92 236 -276q2 4 176 241q98 133 105 142q72 82 135 82q35 0 35 -29q0 -31 -37 -94q-29 -27 -88 -96q-55 -86 -134 -238q-72 -139 -71 -154q0 -6 227 -237q295 -303 377 -389 q49 -51 115 -154q75 -121 75 -168q0 -55 -64.5 -104t-111.5 -49q-27 0 -39 14q0 4 7.5 19.5t7.5 25.5q0 49 -92 178q-74 -100 -162 -100h-33q-45 27 -147.5 129t-102.5 131q0 20 23 43l-252 285q-57 -119 -172 -361q4 -14 2 -39q-123 -291 -248 -291q-39 0 -39 45 q0 37 25 84q31 63 32 74v6q-75 -73 -131 -73h-2q-37 0 -37 22q0 8 208 364.5t208 362.5q0 4 -221 211q-250 233 -350.5 345t-100.5 161zM442 1530q14 -25 74 -78l86 -78q-23 37 -135 166q-8 3 -13 3q-11 0 -12 -13zM702 281q3 -3 7 -3q6 0 14 7l16 49l-26 -27z" />
<glyph unicode="Y" horiz-adv-x="1855" d="M176 1477q0 47 76 94q66 39 96 39q6 0 20.5 -9.5t20.5 -9.5l40 28t77 28q53 0 168 -127q16 -18 133 -162q139 -172 276 -346q129 164 256 325q213 260 316 260q41 0 41 -20q0 -6 -2 -12q-10 -4 4 -4q6 0 30.5 16t32.5 18q20 8 41 9q35 0 35 -25t-78 -104q14 2 52 17 t44 15q37 1 37 -28q0 -20 -92 -156q-51 -72 -102 -145q-211 -326 -623 -981q29 -14 29 -29q0 -41 -74 -100q-59 -47 -98 -64q-23 0 -62 -8q-43 -35 -135 -82q-4 -2 -30 -2q-55 0 -56 33q0 8 4 18q2 4 -4 10q-23 -12 -45 -12q-67 0 -67 85q0 46 24 93q23 41 47 82l80 141 q55 100 172 297l-59 50q0 12 8 28.5t8 22.5q0 10 -10 20q-74 86 -229 264q-53 59 -248 263q-154 162 -154 170zM1069 530q33 8 76 31q90 123 239 365q191 303 232 366q-389 -471 -547 -762zM1622 1303l8 -5l8 17l-8 2z" />
<glyph unicode="Z" horiz-adv-x="1935" d="M176 -2q0 6 98 156q131 197 166 247q303 481 330 521q178 262 383 479q-16 10 -70 10q-76 0 -223 -31q-90 -18 -180 -39q-348 -59 -451 -59q-33 0 -53 12q0 25 24.5 65t57.5 60q-27 0 -76 29v7q0 38 60 86q66 52 114 52q6 0 24.5 -9t29.5 -9q6 0 58 10t71 12 q265 25 352 25h12h508q10 -8 12 -29q0 -6 17 -6q6 0 53 20.5t55 20.5q6 0 21.5 -3t21.5 -3q8 0 35 7t37 9q49 8 135 9q76 -1 96 -13q0 -43 -30 -86q-53 -72 -230.5 -218t-232.5 -218q-119 -158 -264 -416q-231 -412 -242 -430q77 1 164 1q304 0 723 -11q14 -12 14 -27 q0 -14 -37 -63q18 -16 19 -33q0 -51 -72 -96q-59 -39 -98 -39q-8 0 -125 6t-123 6q-104 0 -191 -6q-297 -14 -471 -33q-8 -8 -28 -24q-55 -41 -97 -53q-6 -2 -20 -3q-35 0 -35 23q0 14 17 39q-2 4 -17 4q-8 0 -82 -20.5t-80 -20.5q-39 0 -39 23q0 10 31 55 q-133 -20 -131 -21q-41 0 -41 25zM459 162q33 4 45.5 29.5t30.5 54.5q-18 -6 -56 -39q-20 -25 -20 -45zM725 225h1q6 0 44 64q20 35 47 86q-27 -23 -74 -86q-22 -41 -22 -52q0 -7 4 -12zM1540 1370q72 68 125 121h-27q-37 -43 -98 -121z" />
<glyph unicode="[" horiz-adv-x="1081" d="M176 1495q0 31 44 74t81 53q68 18 131 18l326 7q41 0 41 -29q0 -33 -58.5 -79t-85.5 -48q-49 0 -151 -6q45 -219 90 -436q51 -254 51 -467q0 -219 -29 -338q82 0 166 -2q138 -4 181 -33q-6 -53 -65.5 -96t-115.5 -43q-6 0 -79.5 11t-79.5 11q-98 0 -152 -14 q-41 -10 -184 -76q-37 -14 -62 -14q-37 0 -37 22q0 18 26 50t44 42q-12 18 -12 50q0 -4 22 67q14 47 15 199q0 174 -13 422q-4 92 -26 252q-10 78 -41 247q-27 152 -27 156z" />
<glyph unicode="\" horiz-adv-x="1368" d="M164 1513q0 43 62.5 91.5t103.5 48.5q10 0 65 -33q18 6 47 -4q57 -78 133 -211q119 -205 132 -225q33 -59 100 -183q276 -481 518 -813q14 -4 37 -22q12 -22 12 -53q0 -27 -40 -66t-81 -53q-16 -8 -59 -8q-98 129 -281 395h-6q115 -252 115 -254q0 -33 -42 -72t-79 -51 q-23 -6 -59 -6q-51 92 -123 256z" />
<glyph unicode="]" horiz-adv-x="1054" d="M240 -23q0 53 93 131t144 78q37 0 33 -43h14q0 41 -22 115q-25 90 -29 121q-55 336 -55 645q0 223 14 340q2 25 55 119q-12 4 -69 4q-6 0 -66.5 -8.5t-68.5 -8.5q-37 0 -37 23q0 41 69 90q59 43 88 47q117 14 215 12h238q14 -12 14 -32l-16 -142q-16 -147 -18 -221 q-6 -137 -9 -295l-4 -209q0 -139 25 -364q8 -10 20 -33q13 -51 13 -143q0 -154 -285 -193q-45 -12 -88 -24q-80 -20 -127 -21h-88q-33 0 -53 12zM614 1128q0 -45 17 -278q0 96 8 311q2 78 6 115q20 180 8 217q-39 -29 -39 -365z" />
<glyph unicode="^" horiz-adv-x="1288" d="M229 952q0 8 21 39q29 41 33 49q70 121 231 312q184 217 195 231q20 29 73.5 57.5t81.5 20.5q4 -14 15 -39q12 -10 28 -33q33 -57 70 -153q35 -72 70 -142q61 -128 61 -161q0 -41 -59 -82q-31 -18 -60 -39q10 -14 10 -33q0 -49 -64.5 -96t-111.5 -39q-106 231 -245 405 q-8 -4 -48 -51q18 -16 19 -24q0 -23 -84 -101l-94 -90q-59 -51 -109 -51q-33 0 -33 20zM748 1389l40 -33q-12 53 -24 55q-2 -2 -8 -11t-8 -11z" />
<glyph unicode="_" horiz-adv-x="1464" d="M12 -70q0 25 37 54q29 25 51 32q8 2 78 13q100 16 303 49q123 14 363 28q199 12 225 13h371q8 -8 8 -17q0 -29 -45 -59.5t-64 -30.5l-344 -2q-29 0 -84 -4q2 -2 314 -2q43 -2 297 -18q2 0 8 -6q0 -20 -10 -31q-43 -47 -64.5 -57.5t-75.5 -10.5q-4 0 -133 8.5t-133 8.5 h-598q-61 0 -191 -18.5t-192 -37.5q-18 -10 -57 -24q-4 -2 -27 -2t-37 8q-4 47 82 92q6 -2 -47 -2q-35 0 -35 16z" />
<glyph unicode="`" horiz-adv-x="980" d="M315 1391q0 111 9 131q16 45 108 84q4 2 35 2q10 -16 10 -49q0 -41 4 -56q16 72 66.5 117t107.5 45q45 0 54 -20q0 -6 -2 -25q-6 -29 -36 -50.5t-34 -27.5q-14 -45 -14 -131q0 -131 43 -192q6 -8 100 -82q6 -35 -49 -75t-84 -40q-27 0 -46.5 17.5t-23.5 17.5t-32.5 -17.5 t-55.5 -17.5q-39 0 -67 27q-66 59 -84 157q-8 47 -9 185z" />
<glyph unicode="a" horiz-adv-x="1835" d="M213 27q0 12 41 147q43 147 78 232q156 356 461 1075q6 25 26 69q66 78 144 78q20 0 31 -24l10 -23q8 0 87.5 29.5t86.5 29.5q37 0 45 -26q88 -299 274 -899q158 35 164 35q47 0 47 -29q0 -35 -76 -96l-94 -70q16 -84 33 -84q6 0 99 32t102 32q34 0 34 -23 q0 -70 -215 -162q76 -197 76 -227q1 -53 -65 -103q-57 -44 -106 -44q-8 0 -15 1q-29 82 -103 308q-455 -119 -696 -205q-27 -8 -76 -29q-27 -18 -52.5 -34.5t-55.5 -16.5q-35 0 -35 35q0 43 41 165t41 144q0 8 -2 10q-49 -104 -99 -207q-84 -147 -190 -147q-41 0 -41 27z M825 373q183 141 457 268q-86 260 -160 533q-43 -119 -108 -291q-16 -39 -189 -510zM1184 369q27 6 82 17t80 17q-4 18 -13 46q-55 -31 -149 -80z" />
<glyph unicode="b" horiz-adv-x="1615" d="M205 1196q0 154 14 193q31 98 162 106q8 -6 8 -20l-8 -43q-4 -27 4 -46q12 88 66 166q62 90 141 90h10q12 -25 19 -81q4 -63 12 -86q127 63 266 84q96 16 268 16q61 0 103 -12q16 -14 53 -45q53 -41 63 -52q27 -27 27 -59q0 -78 -215 -246q-45 -35 -438 -332q2 -2 6 -2 q125 57 188 74q88 25 197 25q168 0 287 -47q190 -74 190 -248q0 -197 -299 -387q-35 -23 -127 -62q-68 -31 -205 -84l-67 -26q-45 -18 -64 -19q-29 0 -32 18.5t-5 18.5q-4 0 -35.5 -8t-45.5 -8q-6 -47 -62.5 -89t-101.5 -42q-8 0 -17 2q-18 14 -26 43q-33 139 -49 336 q-12 164 -23 325q-2 -18 -2 -131q0 -119 10 -194.5t10 -98.5q0 -33 -2 -43q-6 -37 -59 -72.5t-84 -35.5q-35 0 -51 45q4 16 8 47q-12 66 -35 188q-12 102 -37 308q-22 236 -22 510v24zM635 1296l6 -301q106 78 162 125q104 88 133 154q0 11 2 29q-55 43 -90 43 q-4 0 -213 -50zM647 864q20 -14 46 7.5t20 54.5zM662 481q0 -2 47 -344q51 59 92 88q63 43 198 115q152 80 187 80t35 -21q0 -18 -21 -47q103 80 103 125q0 25 -48 53q-33 23 -94 56q-143 43 -200 43q-25 0 -299 -74v-74zM686 678q117 36 289 106h-19q-53 0 -231 -79 q-16 -6 -39 -27zM827 1012q109 59 281 260q8 12 27 47q22 43 22 57q0 8 -41 25q1 -6 1 -12q0 -130 -281 -359q-2 -6 -9 -18zM975 784h14v9h-14v-9z" />
<glyph unicode="c" horiz-adv-x="1820" d="M258 379q0 150 135 440q121 262 385 494q272 240 514 284q16 8 51 19q147 31 197 31q76 0 189 -58v-5q1 -41 -59 -84q-64 -46 -109 -46q-6 0 -29 8t-29 8q-8 0 -26.5 -15t-22.5 -17q-315 -170 -489 -334q-137 -127 -181 -252q-53 -150 -53 -225q0 -6 9.5 -49t11.5 -62 q4 -43 60 -111.5t106 -82.5q113 -37 221 -37q113 0 286 47q162 43 287 98q18 8 39 8q35 1 35 -22q0 -55 -166 -146q16 -2 51 -14q0 -20 -2 -27q-49 -102 -196 -143q-111 -25 -220 -49q-20 -4 -57 -10q-307 -66 -457 -66q-481 0 -481 418zM555 831q162 293 682 627 q-31 -10 -53 -14q-92 -16 -223 -109q-59 -43 -148 -116q-162 -174 -258 -388z" />
<glyph unicode="d" horiz-adv-x="1703" d="M221 1376q0 141 2 152q4 37 62.5 78t93.5 41q31 0 31 -25q4 -45 6 -51q80 51 114 51q47 0 58 -45q6 -37 14 -76q190 82 356 82q217 0 453 -160q43 -18 131 -67q57 -45 82 -113q10 -25 27 -110q12 -27 30 -76q19 -80 19 -146q0 -102 -92 -247q-78 -123 -189 -236 q-12 -12 -88 -141q-33 -59 -89 -105.5t-99 -46.5q-39 0 -39 33q0 14 6 35v8q-55 -27 -158 -92q-4 -20 -26 -58q-81 -75 -137 -75h-1q-27 0 -24 0q-10 4 -23 34q-35 -52 -87 -86q-44 -29 -82 -29q-7 0 -13 1q-16 41 -24 121q-12 117 -19 149q-16 -63 -69.5 -101t-110.5 -38 q-18 20 -23 24q-8 121 -22 244q-45 371 -57.5 595t-12.5 476zM494 297q2 -29 10 -35q12 23 8 39t-14 43q-4 -20 -4 -37v-10zM715 549h8v29h-8v-29zM725 532q0 -139 10 -397q0 29 13 105q8 58 8 89v11q-12 63 -31 192zM813 1313q70 -289 123 -864q1 -18 1 -42.5t-1 -56.5 q-4 -82 -4 -88q150 133 258 277q23 27 45 51q27 33 27 51q0 100 -93 309q-84 188 -154.5 275.5t-178.5 87.5h-23zM1210 381q14 10 33 31q6 10 12 39q-8 -10 -26 -33q-8 -12 -19 -37zM1268 1260q45 -92 90 -187q53 -115 69 -186q25 69 25 106q0 53 -72 148q-55 70 -112 119z M1434 629q18 18 43 51q8 14 12 45q-6 -2 -27 -31q-10 -25 -28 -65z" />
<glyph unicode="e" horiz-adv-x="1781" d="M193 1206q-2 18 25.5 53t27.5 39q2 49 14 158q6 39 63.5 76t90.5 37q31 0 30 -25v-11v-9q0 -10 7 -11q8 0 29.5 8.5t29.5 8.5q35 0 42 -26.5t15 -26.5q2 0 86 28q94 33 154 45q96 23 287 62q209 35 297 35q61 0 75 -19q-2 -27 -30.5 -65.5t-63.5 -55.5q33 0 96.5 3 t65.5 3q74 0 102 -16q1 -7 1 -13q0 -47 -62 -95q-61 -51 -109 -52q-33 0 -34.5 16.5t-32.5 16.5q-100 0 -410 -74q-37 -8 -258 -88q0 -172 23 -272l360 74q276 53 436 53q35 0 54 -12q-6 -66 -74 -135.5t-133 -69.5q-8 -4 -25.5 -6t-50.5 -6q-203 -49 -244 -62 q-180 -53 -311 -127q16 -131 25 -182q18 -113 45 -201q150 70 251 109q115 45 222 75q78 31 157 62q125 47 185 47q33 0 51 -12q0 -41 -48 -74t-91 -39q-80 -12 -150 -41q-57 -23 -115 -45q25 -8 107 -10q68 -2 88 -23q0 -31 -25 -57q-41 -45 -116 -70q-61 -16 -123 -32 q-145 -49 -453 -150q-139 -43 -147 -43q-39 0 -39 23q0 18 22 41q-10 2 -35.5 -2.5t-33.5 -4.5q-18 0 -19 13q-8 129 -24 198q-14 53 -29 107q0 -14 8 -131q2 -34 2 -64q0 -44 -4 -78q-5 -37 -71 -79q-56 -35 -90 -34q-7 0 -13 1q-45 102 -45 278q0 66 -8 193q-6 135 -8 198 q-3 200 -3 335q0 180 5 243q-29 -2 -51 10zM717 1409l6 -66q104 43 297 125q-125 -14 -195 -32q-86 -23 -108 -27zM856 166q53 18 191 63q78 25 170 88q-47 -8 -205 -67q-104 -45 -156 -84z" />
<glyph unicode="f" horiz-adv-x="1597" d="M197 981q0 186 12 256q6 33 88 92q31 23 35 51q4 45 14 133q8 49 84 101q66 46 106 46q6 0 11 -1q8 -12 12 -107q0 -25 4 -43q176 82 416 138q256 61 453 61q72 0 90 -12q1 -4 1 -8q0 -59 -104 -113q10 0 34 3t30 3q35 0 35 -22q0 -29 -56 -74q-45 -37 -73 -45 q-137 -37 -385 -127q-45 -12 -132 -41q-49 -18 -219 -96q2 -27 11 -125q8 -78 8 -121q0 -4 6 -15q45 23 131 60q340 96 541 123q14 2 55 12q35 8 43 8q37 0 37 -20q0 -70 -201 -146q-133 -51 -207 -78q4 -4 13 -2q326 96 452 101q10 0 33.5 7t30.5 7q32 1 32 -22 q0 -39 -67 -86q-53 -39 -84 -45q-37 -2 -105 -9q-131 -20 -348 -88q-205 -63 -348 -123q2 -152 19 -434q2 -14 11 -68.5t9 -60.5q0 -47 -60.5 -90t-111.5 -43q-10 0 -18 2q-12 16 -37 111q-23 86 -29 86q-2 0 -47 -31q-39 -26 -71 -26q-11 0 -21 3q-8 14 -27 35 q-12 2 -26.5 5t-18.5 16q-2 53 -8 94q-14 74 -41 313q-12 184 -12 455zM627 1432q6 -47 6 -64q158 70 194 86q125 53 213 76q-6 6 -22 6q-39 0 -123 -27l-104 -28q-31 -10 -164 -49z" />
<glyph unicode="g" horiz-adv-x="1994" d="M213 457q0 373 344 643q66 74 205 215q94 90 239 178q135 82 236 115q115 39 315 39q100 0 166 -15q29 -14 80 -30q25 -33 25 -52q0 -47 -76 -96q-68 -41 -100 -41q-41 0 -56 25q0 6 -5 17t-67.5 23.5t-97.5 12.5q-139 0 -250 -33q-37 -12 -172 -92q4 -4 15 0 q92 25 184 49q164 45 229 45q39 0 60 -12q-4 -61 -86 -111q-23 -14 -125 -59q-393 -172 -471 -399q-14 -33 -35 -101q-14 -77 -16 -77v1v4q2 0 10 -65q0 -25 10 -72q53 -137 166 -192q86 -41 229 -41q137 0 258 47q0 190 -22 315q-172 -86 -350 -86q-66 0 -97 21 q12 72 134 139q94 45 186 90q33 8 82 43q12 35 45 109q25 51 115 90q18 8 61 8q14 -31 18 -78q2 -53 7 -67q23 4 57 14q76 47 115 47q35 0 41 -10q2 -18 4 -31.5t16 -13.5q6 0 18.5 3t20.5 3q41 0 41 -23q0 -35 -84 -100q16 -453 16 -496q29 18 58 19q35 0 35 -27 q0 -8 -10.5 -27.5t-12.5 -27.5q-23 -78 -93.5 -145.5t-133.5 -67.5q-25 0 -35 6q-8 -18 -8 -33v-7q0 -64 -69 -117q-62 -48 -112 -48q-9 0 -18 2q-20 49 -20 103q0 15 2 30q-6 4 -15 3q-291 -66 -491 -66q-322 0 -514 104q-35 18 -92.5 89t-69.5 110q-10 20 -24.5 63.5 t-14.5 133.5zM559 662q20 137 133 294q117 167 273 263q-68 -16 -168 -70q-39 -20 -95 -62q-143 -180 -143 -425zM942 190q33 -23 109 -23q14 0 30 1q123 18 361 41l2 55l-19 2q-164 -31 -483 -76z" />
<glyph unicode="h" horiz-adv-x="1814" d="M229 532q0 55 7 240l20 639q0 4 -8 16q-1 5 -1 10q0 51 53 97q58 52 106 51q6 0 15 -6t13 -6q-4 0 10 8q60 53 110 53q10 0 19 -2q23 -35 33 -94q37 -215 56 -707q2 0 3 -2t9 -2q274 98 305 99h188v671q0 35 68 76q59 37 86 37q18 0 33 -12l-6 -273q0 -111 8 -231 q14 39 26 137q16 117 23 135q8 39 63.5 76t87.5 37q39 0 39 -35v-381q0 -205 45 -555q29 -223 60 -446q2 -14 11 -52t9 -44q0 -37 -47 -76t-86 -49h-41l-16 16l-86 612q-10 -172 -39 -489q-3 -39 -71 -81q-55 -34 -87 -34q-8 0 -14 2q-2 4 -10 13q-6 236 -23 604 q-2 14 -10 30q-41 -10 -70 -10q-94 0 -217 -39q-104 -33 -209 -65q4 -139 15 -371q0 -8 10 -45t10 -45q0 -33 -41 -71t-78 -50q-20 -6 -55 -6q-31 53 -33 102q-4 137 -12 424q-2 0 -3 3t-9 3q-37 0 -37 -45q0 -14 5 -38.5t5 -28.5v-215q0 -23 -53 -64q-43 -33 -64 -41 q-27 -10 -63 -6q-25 20 -27 45q-35 281 -35 481zM467 553q13 12 25 12v27h-25v-39zM469 735h8v43h-8v-43zM729 737q23 -14 10 -45q86 33 252 90h-51h-5q-62 0 -206 -45z" />
<glyph unicode="i" horiz-adv-x="1056" d="M270 485q0 150 4 226q12 283 45 813q4 37 72 82q61 41 98 41q25 0 35 -13v-6q0 -47 -20 -411v-56q31 123 78 350q6 41 82 91q70 45 104 45q25 0 35 -15l-35 -442v-748q0 -25 12 -196q12 -5 35 -19q2 -30 2 -59q0 -80 -16 -150q-8 -43 -77 -87q-57 -37 -98 -37q-8 0 -16 2 q-18 33 -26 98q-12 112 -13 112l-71 -130q-62 -62 -123 -62q-43 0 -55 31q-23 49 -35 166q-16 137 -17 374zM492 1133h10v22h-10v-22z" />
<glyph unicode="j" horiz-adv-x="1437" d="M160 420q0 115 114 266q104 137 252 246q38 28 71 28q12 0 24 -4q2 -4 10 -12q-1 -22 -1 -45q0 -193 46 -405q16 -96 35 -195q43 -176 106 -176q57 0 113 106q25 55 47 113q20 47 20 49q0 6 -26 74q-35 82 -45 110q-31 92 -56 197q-33 147 -82 418q-43 242 -43 258 q0 55 68 106q61 43 102 43q6 0 14.5 -3t14.5 -3q8 0 19.5 12.5t13.5 14.5q34 24 82 24h4q92 0 92 -55q0 -27 -68 -88q63 -252 127 -504q59 -258 60 -463q0 -2 -8 -180q0 -10 -10.5 -36.5t-10.5 -34.5q0 -29 23 -52q14 -4 39 -16q2 -35 -44 -79t-81 -54q-20 0 -56 -8 q-29 -29 -96 -82q-121 -80 -235 -80q-156 0 -332 113q-184 117 -291 294q-12 20 -12 103zM350 520q0 -66 27 -108t119 -136v25q2 8 -17 90q-20 100 -24 135q-6 66 -17 189q-88 -129 -88 -195zM907 57h8q5 -1 11 -1q33 0 74 40q47 47 47 84z" />
<glyph unicode="k" horiz-adv-x="1865" d="M250 961q0 418 26 591q6 39 69 82t101 43q35 0 35 -39q0 -14 -5 -38.5t-7 -28.5v-17q10 2 19.5 34t21.5 46q27 35 83 65q43 23 74 23q9 0 17 -2q4 -4 10 -14q35 -199 72 -735q0 -12 8 -35q162 197 459 563q37 27 94 86q76 104 164 105q39 0 39 -27q0 -45 -72 -107 q4 -8 2 -28q-55 -156 -352 -547q72 -145 227 -426q127 -168 338 -459q12 -8 35 -24q1 -5 1 -10q0 -46 -67 -95q-63 -49 -112 -49q-20 0 -29 2q-33 35 -88 123q-41 61 -67 96q0 -16 16 -55t16 -45q0 -31 -46 -74t-85 -57q-22 -7 -49 -7q-11 0 -22 1q-180 391 -336 766 q-27 -27 -45 -54q31 -14 30 -30q0 -8 -12 -40t-12 -40v2q1 0 10 -100q8 -96 29 -291q23 -14 22 -31q0 -37 -61 -88q-45 -37 -82 -51q-14 -6 -76 -6q-4 2 -12 12q-16 207 -39 461l-10 10q-2 0 -9 6q-2 -26 -2 -67t2 -97q7 -114 9 -114v2q0 -78 -19 -105q-27 -45 -131 -90h-45 q-25 37 -31 55q-106 326 -106 949zM565 539h13v65h-13v-65z" />
<glyph unicode="l" horiz-adv-x="1708" d="M242 1286q0 117 2 123q14 51 80 93q57 37 97 37q6 0 11 -1q10 39 58.5 85t87.5 56q33 8 40 9q37 0 37 -37q0 -6 -11 -39t-11 -47q-27 -254 -27 -275v-41h2q33 137 43 254q6 63 74 121q61 51 113 51q29 0 34 -9t5 -38q0 -6 -13 -121q-14 -131 -18 -186q-33 -424 -33 -637 q0 -96 43 -410q-4 -4 10 -4q723 313 797 314q47 0 47 -25q0 -31 -37 -63q-25 -20 -51 -41q6 -4 31 -9q14 -4 14 -20q0 -47 -96 -111q-59 -35 -119 -69q-25 -2 -63 -10q-162 -53 -289 -107q-139 -57 -205 -117q-6 -23 -29 -61q-57 -49 -75 -62q-35 -22 -78 -22h-4q-6 0 -32 4 t-38 4q-29 29 -18 53q-2 2 -15 2q-8 0 -63.5 -25.5t-63.5 -25.5q-29 0 -37 25.5t-16 48.5q-16 0 -33 2q-25 0 -37 14q0 33 -6 84q-35 299 -69 600q-39 379 -39 633z" />
<glyph unicode="m" horiz-adv-x="2623" d="M180 -100q0 41 92 436q80 338 131 543l60 165q49 154 131 316q20 43 68 131q33 51 108 78q16 2 51 8q37 27 115 68q6 2 41 2q10 -10 22 -31q2 -6 -3 -22.5t-5 -18.5q-1 -14 -1 -30q0 -48 9 -118q61 -457 125 -841q59 176 95 266q59 141 143 297q4 4 65 74 q141 158 248 254q39 20 103 55q23 25 75 65q90 49 142 50q23 0 40 -17.5t17 -32.5q0 -6 -20.5 -41.5t-20.5 -44.5q0 8 334 -876q10 -29 45 -172q80 -347 84 -347v1q0 -45 -76 -90q-63 -41 -90 -41q-33 0 -37 24q-6 43 -12 49q-20 -39 -67.5 -70.5t-84.5 -31.5q-27 0 -49 37 q-16 31 -30 61q-25 43 -62 127q-86 326 -192 858q-367 -700 -367 -727q0 -4 11.5 -18t11.5 -29q0 -59 -76 -106q-61 -37 -101 -37q-6 0 -21 3t-22 3q-14 0 -24 -16q-27 -37 -73 -69t-83 -32q-8 0 -16 2q-20 29 -23 54q1 9 1 19q0 32 -5 79q-49 225 -86 489q-51 373 -67 471 q-45 -154 -113 -440q-96 -414 -96 -549q0 -6 11 -17t11 -20q0 -6 -4 -21.5t-4 -21.5q-2 -74 -68 -129q-57 -51 -106 -51q-20 0 -33 12q-1 27 -1 55q0 216 67 527q80 322 159 641q4 4 0 14q-29 -59 -82 -247q-109 -377 -165 -709q6 -14 8 -45q-18 -100 -72 -172 q-57 -82 -131 -82q-35 0 -35 29zM657 1128h11v15h-11v-15zM1438 989q33 57 92 150q23 35 41 80q-27 -20 -78 -93q-27 -68 -55 -137zM1456 709q53 74 139 247q81 160 97 226q-45 -66 -131 -221q-66 -133 -105 -252z" />
<glyph unicode="n" horiz-adv-x="1607" d="M233 184v637q0 141 23 422q10 125 33 225q6 31 78 93q100 86 143 86t74 -66q121 -301 243 -602q158 -381 326 -633q2 2 2 19q-14 106 -35 303q-14 162 -30 473q-14 262 -15 293q0 72 15 94q23 37 114 78q4 2 41 2q2 -2 8 -13q2 -115 13 -227q45 123 84 178 q68 101 156 101h5q10 -14 23 -105q2 -4 6 -14.5t4 -18.5q0 -37 -58.5 -78.5t-58.5 -48.5q-33 -166 -53 -344q-16 -139 -31 -280q-2 -10 -2 -135q0 -150 11.5 -205.5t11.5 -138.5q0 -70 -2 -80q-12 -57 -125 -107q1 -5 1 -10q0 -48 -67 -98q-66 -47 -112 -47q-41 0 -101 83 q-31 49 -61 99q-39 59 -170 297q-104 182 -305 542q-8 -25 -8 -55v-608q0 -59 22 -158q12 -2 41 -16v-9q1 -55 -65 -116q-61 -57 -115 -57q-9 0 -18 2q-14 12 -17 28q-29 145 -29 215zM436 1294q15 7 31 19q-14 23 -23 51q0 -10 -4 -34.5t-4 -35.5zM1139 135q29 -25 43 -29 q-4 8 -7.5 27t-5.5 27q-8 -4 -30 -25z" />
<glyph unicode="o" horiz-adv-x="1740" d="M188 537q0 225 119 446q162 301 391 461q10 14 27 39q63 92 186 145q39 18 66 19q33 0 33 -21q0 -8 -25 -47q24 -2 55 -2t70 2q98 4 123 4q109 0 180 -31q25 -10 92 -90q121 -137 121 -444q0 -154 -22 -268q-4 -23 -56 -207q-43 -154 -235.5 -339.5t-349.5 -223.5 q-14 -12 -45 -31q-72 -37 -117 -37q-37 0 -64 16q-35 18 -47 21q-41 0 -117 14q-207 78 -305 250q-80 141 -80 324zM360 627q0 -106 43 -219q48 -129 132 -201q-20 53 -54 145q-6 45 -22 121q-36 123 -36 232q0 16 1 32q-20 -10 -53 -10q-10 -82 -11 -100zM627 700 q0 -106 12 -151q20 -88 115 -176q20 -20 125 -82q-2 -35 -45 -72q-31 -20 -60 -43q10 -25 37 -57q33 -41 57 -41q8 0 47 5t52 5q55 6 67 23q47 63 111 204q41 97 41 285q0 119 -6 137q-133 342 -308 652q-41 -33 -81 -66q-51 -41 -62 -80q29 -4 29 -20l-6 -17 q-25 -25 -58 -65q-14 -33 -35 -154q-32 -179 -32 -281v-6zM1198 1438q68 -213 82 -264q43 -158 70 -328q16 -45 43 -121q8 -43 18 -129q43 127 43 332q0 166 -51 305q-70 188 -205 205zM1294 319q83 124 103 222q-23 -18 -54 -58z" />
<glyph unicode="p" horiz-adv-x="1441" d="M233 995q0 -2 2.5 38t2.5 104q2 74 2 219q0 41 61 86q57 39 94 39q45 0 45 -58q0 -20 -10 -34l2 -64q14 94 64 164q57 82 137 82q6 0 17.5 -5t17.5 -5q4 0 23.5 16t25.5 20q45 25 135 68q76 29 119 33q186 20 293 20q82 0 135 -51q61 -57 61 -160q0 -35 -6 -73 q-1 -7 -1 -19q0 -26 5 -76q10 -81 10 -79q0 -242 -229 -447q-205 -182 -496 -256q6 -147 31 -352q8 -2 27 -17q0 -8 -5 -23t-5 -28q0 -59 -61 -106q-57 -43 -111 -43h-9q-18 18 -22 43q-27 152 -33 391q-8 270 -20 381q-14 -188 -15 -250v-293q0 -18 2 -58t2 -63 q0 -174 -176 -190q-14 18 -29 53q-14 80 -34 225q-20 242 -43 486q-8 117 -9 282zM700 1403q12 -182 29 -529q53 63 115 84q25 2 61 9q23 8 57.5 61t38.5 92q3 23 3 33q0 47 -31 115.5t-68 93.5q-23 14 -65.5 27.5t-53.5 13.5h-86zM727 735q0 -10 10 -10q27 0 90 82 q-100 -47 -100 -72zM918 741q10 0 92 39q100 47 141 92q62 68 119 242q-31 -33 -168 -176q-188 -197 -184 -197zM975 1540q94 -31 102 -37q119 -102 119 -246q0 -33 -6 -73q65 92 65 123q0 8 -10 25.5t-10 23.5q-16 66 -88 129t-131 63q-6 0 -21.5 -4t-19.5 -4z" />
<glyph unicode="q" horiz-adv-x="2078" d="M213 451q0 -4 10 104q8 100 10 121q10 74 29 131q172 535 545 770q121 76 199.5 103.5t177.5 27.5q176 0 315 -100q160 -117 209 -328q14 -59 14 -240q0 -102 -34 -217q-6 -29 -27 -90q-10 -20 -47 -86q-29 -53 -29 -61t37 -47q45 -51 55 -66q205 -277 410 -371 q1 -5 1 -11q0 -36 -60 -81q-68 -51 -111 -51q-33 0 -111 53q-72 47 -110 90q-20 -23 -64 -69q-59 -55 -123 -56q-41 0 -139 92.5t-100 92.5q-41 0 -51 -6q-303 -221 -566 -222q-100 0 -204 46q-94 39 -193 239q-43 88 -43 232zM446 510q0 -37 31 -178q10 -41 33 -62 q108 -102 217 -112q-113 133 -113 561q0 203 15 321q6 45 20 136q-92 -117 -151 -332q-51 -186 -52 -334zM817 827q0 -188 39 -381q10 -57 66 -151q18 -31 34 -31l36 22q36 21 65 21q39 0 39 -26q0 -14 -13 -39q61 33 88 55q-16 23 -75 121q-61 109 -62 129q0 37 63.5 84 t104.5 47q31 0 51 -35q15 -35 31 -68v119q-2 -18 -10 41q-33 250 -252 516q-23 31 -44.5 58.5t-51.5 27.5q-8 0 -30 -4t-30 -4q-49 -225 -49 -502zM1053 1550q20 -20 61 -51q12 -4 64 -8q41 -2 53 -18q-6 -35 -29 -68q152 -178 228 -365q-6 6 -7 19q0 25 24.5 57.5 t53.5 46.5q-16 98 -110 215q-106 131 -222 152q-10 2 -41 12q-27 8 -35 8h-3h-37zM1468 895h11v16h-11v-16zM1475 893l6 -70h10l-6 70h-10z" />
<glyph unicode="r" horiz-adv-x="1669" d="M176 1313q0 45 70 88q59 39 94 39q16 0 25 -4q10 -14 22 -66q41 31 72 43q20 4 57 17q51 43 143 110q63 39 150 76q47 18 92 29q12 2 127 2t146 -11q72 -25 90 -125q0 -8 24 -38q37 -49 37 -123q0 -141 -76 -263q-45 -76 -178 -213q30 2 73.5 2t102.5 -2 q180 -29 279 -229q73 -155 73 -323q0 -51 -2 -68q-8 -68 -49 -128t-41 -58q0 -6 12.5 -36t12.5 -36q0 -29 -43 -69t-80 -54q-20 -6 -59 -6q-45 98 -303 639q-8 16 -58 86q-39 55 -39 84q0 12 4 18t9 13q4 4 -7 4q-6 0 -45 -24.5t-61.5 -47.5t-50.5 -66q-23 -35 -72 -65 q-66 -37 -65 -37q0 -12 4 -40t4 -34v-346q0 -25 -52.5 -64.5t-70.5 -43.5q-29 -8 -37 -9q-23 0 -35 15v327q-14 145 -39 441q0 -2 -6 -10q0 -35 -6 -114t-6 -81q0 -8 14 -223t14 -221q0 -39 -53 -82q-45 -39 -88 -49q-4 -2 -41 -3q-16 14 -18 31q-37 346 -47 719 q0 123 -6 477q0 31 -8.5 89.5t-8.5 62.5zM596 1260q0 -6 8 -70q10 -70 12 -92q10 -139 27 -416q86 123 248 369q2 4 2 45q0 106 -64 151q-84 59 -161 60q-6 0 -33 -3.5t-39 -3.5v-40zM647 610q8 -14 8 -32q7 12 27 32h-35zM825 1458q127 -4 228 -117q14 30 14 48t-78 59 q-70 37 -86 37q-10 0 -41 -12.5t-37 -14.5zM1061 1028q27 23 57 66q4 18 4 86q-14 -20 -41 -78q-12 -35 -20 -74zM1223 664q55 -118 170 -345v19q-55 231 -170 326z" />
<glyph unicode="s" horiz-adv-x="1576" d="M164 801q0 256 147 469q164 236 469 344q94 33 277 33q92 0 114 -9q6 -2 14.5 -21.5t16.5 -19.5q6 0 14.5 3.5t16.5 3.5q18 0 27 -2q125 -150 124 -187q0 -45 -75.5 -127t-124.5 -92q-63 -14 -94 -14q-115 0 -115 108q0 78 26 129q2 -2 -51 -2q-6 0 -38.5 15.5 t-41.5 15.5q-66 0 -133 -115q-121 -213 -133 -499l10 -11q41 41 160 79t207 38q158 0 223 -27q256 -110 256 -360q0 -162 -170 -320q-139 -131 -350 -225q-193 -84 -301 -84q-53 0 -94 15q-10 10 -33 26q-43 0 -123 23q-33 20 -33 86q0 123 136.5 268t238.5 145q41 0 41 -24 q0 -8 -19.5 -40t-19.5 -40q0 -61 33 -121q31 -51 59 -102q78 27 136.5 90t58.5 129q0 78 -53.5 187.5t-124.5 160.5q-23 4 -68 10q-4 0 -10 11.5t-14 11.5q-23 0 -91 -31q-6 -45 -67.5 -113.5t-114.5 -83.5q-14 -2 -74 -22q-47 -16 -57 -16q-14 0 -51 24q-18 8 -39 19 q-33 18 -47 38q-6 20 -23 58q-22 49 -22 158v10zM375 913q0 -72 22 -147q2 377 262 670q-123 -47 -203.5 -200t-80.5 -323zM1098 217q151 96 151 225q0 47 -22 115q4 -27 4 -53q0 -143 -133 -287z" />
<glyph unicode="t" horiz-adv-x="1611" d="M0 1157q0 45 92 105q51 31 105 59q135 86 235 127q43 14 84 27q53 18 82 41q8 25 31 65q80 86 153 86q45 0 45 -25q0 -10 -9 -34.5t-9 -36.5q0 -8 4 -17q8 4 43 9q88 104 168 104q31 0 35 -16q2 -2 4 -52l309 15q182 0 197 -29q4 -23 -13 -57q23 -5 74 -19q1 -4 1 -9 q1 -33 -61 -86q-70 -60 -100 -60h-260q-20 0 -168 -31q16 -242 56 -696q12 -72 35 -215q14 -133 14 -262q0 -94 -19 -125q-27 -45 -139 -93h-47q-6 4 -14 15q0 90 -3 181t-22 196q-27 -131 -51 -291q-8 -55 -80 -110.5t-123 -55.5q-43 0 -53 27q-20 51 -33 131 q-14 100 -14 270v604l6 92q8 109 12 207q-6 2 -12 2q-23 0 -55 -24q-61 -47 -66 -50q-96 -47 -198 -47q-41 0 -60 21q8 106 205 170q152 49 199 84q10 6 -7 6q-6 0 -53 -19q-70 -23 -203 -75q-61 -37 -120 -72q-109 -63 -154 -64q-43 0 -43 27zM772 903q40 291 43 291v-2v88 h-24q-6 -127 -19 -377z" />
<glyph unicode="u" horiz-adv-x="1492" d="M168 518q0 141 37 414q33 223 63 448q4 25 0 41q-4 6 -14 19q-1 4 -1 7q0 38 56 83q53 45 103 53q14 63 80 113q55 45 100 45q35 0 35 -31v3q-3 0 -23 -103q-24 -132 -24 -429v-24q0 -393 12 -545q14 -92 39 -266q8 -53 20 -168h49q33 2 33 -20q0 -6 -2 -17q6 -4 41 -4 q57 0 135 23q72 23 90 41q-6 152 -55 501q-49 330 -49 508t14 260q6 42 78 88q58 37 96 37q9 0 17 -2q14 -23 14 -65q-3 -48 -3 -69q0 -11 1 -15q33 25 66.5 48.5t68.5 23.5q20 0 33.5 -18.5t13.5 -31.5v-256q0 -8 43 -476t43 -476q0 -125 -39 -180q-14 -20 -65 -53 q-18 -4 -49 -23q-8 -20 -31 -57q-77 -81 -152 -81q-7 0 -14 1q-4 4 -12 14v16q0 86 -19 187q-106 -59 -182 -80.5t-190 -21.5q-164 0 -256 45q-35 16 -107 120q-94 139 -94 373zM371 705l6 -197h10l-6 197h-10z" />
<glyph unicode="v" horiz-adv-x="1773" d="M57 1505q0 66 61.5 114t133.5 48q14 -29 15 -83t14 -77q0 29 6 84q6 43 73 86q59 39 97 39q37 0 45 -26q23 -55 176 -555q109 -358 235 -584q41 90 103 262q33 78 88 238q47 168 184 479q18 45 60 119q68 80 151 80q43 0 43 -25q0 2 -41 -78q-33 -63 -108 -252 q-18 -45 -39 -88q-18 -53 -23 -104q84 162 170 323q141 236 262 236q37 0 37 -25q0 -20 -31 -55q-20 -23 -39.5 -47.5t-50.5 -73.5q-2 -2 -227 -428q-166 -313 -295 -518q-18 -29 -55 -107q-45 -98 -45 -131q0 -6 13 -25.5t15 -27.5q4 -10 -4 -27q-10 -29 -12 -32q5 1 10 1 q33 0 33 -40q0 -51 -61.5 -101.5t-116.5 -58.5q-78 -121 -189 -121q-67 0 -67 46q0 7 11 38t13 41q-14 0 -37.5 -7t-29.5 -7q-49 0 -113 135q-29 72 -55 143q-123 258 -215 529q-55 129 -150 397q-45 158 -45 266zM666 481q0 -27 49 -119q32 -59 65 -118l19 26 q-45 86 -111 238z" />
<glyph unicode="w" horiz-adv-x="2203" d="M61 1516q0 33 50 73q43 37 88 49q10 2 32 4q25 33 68 61t78 28q47 0 53 -25q12 -76 43 -229q61 -283 193 -846q0 -4 6 -15q252 631 252 641q0 23 -15 82q-2 8 -16 21.5t-14 21.5q0 49 90 111q25 6 67 25q39 47 113 110q18 10 51 23q10 2 43 2q12 -16 27 -54 q10 -133 104 -495q33 -90 92 -270q90 -276 168 -443q25 63 78 217q100 285 295 895q6 25 27 70q18 27 64 53.5t77 26.5q37 0 37 -23v1q-4 0 -94 -298q-145 -483 -310 -901q-87 -222 -92 -222v1q0 -4 45 -85t45 -91q0 -47 -67 -90q-59 -37 -90 -37q-23 0 -30 11t-11 11 q-8 0 -34 -9t-32 -9q-41 0 -43 20v-3v137q-23 -53 -82 -87q-48 -28 -90 -28q-10 0 -20 2q-51 78 -93 237q-18 31 -47 97l-86 270q-72 231 -110 410q-33 -63 -127 -314q-100 -272 -101 -317q0 -59 29 -143q0 -2 10.5 -11.5t10.5 -21.5q0 -57 -60.5 -109.5t-107.5 -52.5 q-6 0 -14.5 2t-14.5 2q1 0 1 -1q0 -6 -47 -52q-54 -53 -114 -53q-51 0 -69 69q-127 498 -252 1274q-6 39 -31 160q-23 111 -23 117zM434 719q8 -98 47 -262l62 -258q2 2 12 16.5t10 22.5q0 25 -41 200q-49 209 -90 281zM1386 383q-2 -16 19.5 -80.5t19.5 -87.5 q10 -20 41 -92q8 0 21 -4q29 -16 20 -31l7 5q6 5 6 13t-52 117q-66 137 -82 180v-20z" />
<glyph unicode="x" horiz-adv-x="2048" d="M188 1532q0 47 68 90q59 37 94 37q18 0 39 -12q63 86 148 86q49 0 151 -131l141 -183q80 -92 236 -276q2 4 176 241q98 133 105 142q72 82 135 82q35 0 35 -29q0 -31 -37 -94q-29 -27 -88 -96q-55 -86 -134 -238q-72 -139 -71 -154q0 -6 227 -237q295 -303 377 -389 q49 -51 115 -154q75 -121 75 -168q0 -55 -64.5 -104t-111.5 -49q-27 0 -39 14q0 4 7.5 19.5t7.5 25.5q0 49 -92 178q-74 -100 -162 -100h-33q-45 27 -147.5 129t-102.5 131q0 20 23 43l-252 285q-57 -119 -172 -361q4 -14 2 -39q-123 -291 -248 -291q-39 0 -39 45 q0 37 25 84q31 63 32 74v6q-75 -73 -131 -73h-2q-37 0 -37 22q0 8 208 364.5t208 362.5q0 4 -221 211q-250 233 -350.5 345t-100.5 161zM442 1530q14 -25 74 -78l86 -78q-23 37 -135 166q-8 3 -13 3q-11 0 -12 -13zM702 281q3 -3 7 -3q6 0 14 7l16 49l-26 -27z" />
<glyph unicode="y" horiz-adv-x="1855" d="M176 1477q0 47 76 94q66 39 96 39q6 0 20.5 -9.5t20.5 -9.5l40 28t77 28q53 0 168 -127q18 -18 133 -162q139 -172 276 -346q129 164 256 325q213 260 316 260q41 0 41 -20q0 -6 -2 -12q-10 -4 4 -4q6 0 30.5 16t32.5 18q20 8 41 9q35 0 35 -25t-78 -104q14 2 52 17 t44 15q37 1 37 -28q0 -20 -92 -156q-51 -72 -102 -145q-211 -326 -623 -981q29 -14 29 -29q0 -41 -74 -100q-59 -47 -98 -64q-23 0 -62 -8q-43 -35 -135 -82q-4 -2 -30 -2q-55 0 -56 33q0 8 4 18q2 4 -4 10q-23 -12 -45 -12q-67 0 -67 85q0 46 24 93q23 41 47 82l80 141 q55 100 172 297l-59 50q0 12 8 28.5t8 22.5q0 10 -10 20q-74 86 -229 264q-53 59 -248 263q-154 162 -154 170zM1069 530q33 8 76 31q90 123 239 365q191 303 232 366q-389 -471 -547 -762zM1622 1303l8 -5l8 17l-8 2z" />
<glyph unicode="z" horiz-adv-x="1935" d="M176 -2q0 6 98 156q131 197 166 247q303 481 330 521q178 262 383 479q-16 10 -70 10q-76 0 -223 -31q-90 -18 -180 -39q-348 -59 -451 -59q-33 0 -53 12q0 25 24.5 65t57.5 60q-27 0 -76 29v7q0 38 60 86q66 52 114 52q6 0 24.5 -9t29.5 -9q6 0 58 10t71 12 q265 25 352 25h12h508q10 -8 12 -29q0 -6 17 -6q6 0 53 20.5t55 20.5q6 0 21.5 -3t21.5 -3q8 0 35 7t37 9q49 8 135 9q76 -1 96 -13q0 -43 -30 -86q-53 -72 -230.5 -218t-232.5 -218q-119 -158 -264 -416q-231 -412 -242 -430q77 1 164 1q304 0 723 -11q14 -12 14 -27 q0 -14 -37 -63q18 -16 19 -33q0 -51 -72 -96q-59 -39 -98 -39q-8 0 -125 6t-123 6q-104 0 -191 -6q-297 -14 -471 -33q-8 -8 -28 -24q-55 -41 -97 -53q-6 -2 -20 -3q-35 0 -35 23q0 14 17 39q-2 4 -17 4q-8 0 -82 -20.5t-80 -20.5q-39 0 -39 23q0 10 31 55 q-133 -20 -131 -21q-41 0 -41 25zM459 162q33 4 45.5 29.5t30.5 54.5q-18 -6 -56 -39q-20 -25 -20 -45zM725 225h1q6 0 44 64q20 35 47 86q-27 -23 -74 -86q-22 -41 -22 -52q0 -7 4 -12zM1540 1370q72 68 125 121h-27q-37 -43 -98 -121z" />
<glyph unicode="{" horiz-adv-x="1124" d="M184 106q0 35 43 80q25 20 49 41q231 231 451 316q55 20 113 20q22 1 65 -24q6 -12 -7 -42t-26 -42q-195 -176 -368 -353q12 -63 -68 -116q-70 -49 -131 -49q-49 0 -49 26q0 51 170 215q94 92 186 182q0 2 1 2t-1 3h-10q-29 0 -169 -141.5t-210 -141.5q-39 0 -39 24z M244 1372q0 29 63 92q-6 12 -12 41q-10 43 57.5 92.5t112.5 49.5t86 -33q72 -57 190 -125q158 -88 177 -100q22 -5 61 -21q4 -66 -139 -139q-2 0 -58 -37q-20 -14 -67 -14q-41 0 -246 73q-225 80 -225 121zM268 731q0 35 64 84q57 47 84 47q92 0 278.5 13.5t179.5 13.5 q46 0 46 -25q0 -45 -76 -92q-61 -41 -96 -45q-205 -20 -248 -18h-217q-14 12 -15 22z" />
<glyph unicode="|" horiz-adv-x="1019" d="M322 393q0 365 6 527q2 74 10 229l10 145v242q0 31 62 72q49 31 67 34q6 2 39 3q8 -14 10 -52v-57q0 -16 4 -29q16 45 68 78q45 29 82 29t37 -37l-15 -127q-14 -135 -16 -199q-6 -123 -6 -305q0 -221 22 -422q12 -100 58 -401q2 -6 11 -34t9 -38q0 -51 -55 -95t-111 -42 q-20 16 -22 29q-23 133 -64 397q-6 117 -24 356q-2 -35 -2 -209q0 4 2 -139t2 -198q0 -10 10 -31t10 -27q0 -172 -137 -219h-39l-12 12q-16 246 -16 508zM524 1419h11v68h-11v-68z" />
<glyph unicode="}" horiz-adv-x="1214" d="M233 336q0 45 105 108q94 55 125 56q20 0 43.5 -22.5t48.5 -47.5q66 -51 199 -168q202 -194 202 -223q0 -39 -61 -79t-92 -40t-47 19q-55 68 -176 188q-25 -2 -70 2q-47 27 -137 78q-16 6 -74 57q-66 57 -66 72zM276 666q0 106 293 225q248 102 334 102q47 0 64 -16 q12 -25 -31 -74q12 -6 47 -5t51 -15q2 -72 -131 -127q23 -2 64 -15q14 -43 -47.5 -93t-104.5 -50q-6 0 -15 6t-16 6q-6 0 -76.5 -6t-76.5 -6q-121 0 -340 25q-14 8 -15 43zM311 1180q0 37 23 59q135 135 448 360q66 47 125 48q39 0 54 -29q33 12 49 12q41 1 41 -22 q0 -31 -76 -95q-41 -33 -84 -65q-49 -55 -244 -195q-205 -145 -254 -145q-35 0 -35 25q0 16 13 32q-18 2 -60 15zM541 1294l16 6l-2 9l-14 -9v-6zM563 1311l17 6l-5 8l-12 -8v-6zM586 1333l4 -8l139 102l-6 7zM733 743q23 0 68 3.5t63 3.5l-63 8q-27 -6 -68 -15z" />
<glyph unicode="~" horiz-adv-x="1689" d="M242 1174q0 35 77 124q125 147 279 232q14 8 53 8q37 0 41 -2q61 -39 195 -111q158 -78 176 -77q6 0 130 98t157 98q23 0 22 -16q0 -6 -5 -20.5t-5 -18.5q0 -6 6 -6q4 0 12.5 3t12.5 3q28 0 28 -23q0 -43 -75 -102q-39 -25 -78 -51q-98 -98 -191 -166q-25 -16 -63 -17 q-53 0 -217 89q-18 10 -64.5 48t-50.5 38t-144.5 -71t-144.5 -71q-27 0 -26 21q0 10 14 43v6q-63 -82 -109 -82q-31 0 -30 23zM385 1233q29 45 100 84q95 51 113 65q-20 14 -33 15q-18 0 -84 -56q-53 -41 -71.5 -60t-24.5 -48z" />
<glyph unicode="&#xa3;" horiz-adv-x="2021" d="M258 -94q0 35 25 53q193 154 319 348q53 82 195 369q-57 -2 -168 -32t-170 -30q-41 0 -41 21q0 51 82 98q70 39 98 39q6 0 18.5 -2t18.5 -2q12 0 84 16q82 16 129 33q8 4 20 39q-10 4 -47 0q-49 -4 -164 -20q-102 -12 -108 -13q-31 0 -49 11q-12 49 88 106q90 53 135 53 q6 0 17.5 -6t17.5 -6q14 0 84 14q20 0 41 2q29 0 32 11q27 90 80 258q51 143 105 202q20 25 108 74q20 20 78 64q70 41 133 41q147 0 236 -228q20 -47 20 -139q0 -78 -12 -98q-20 -35 -121 -84h-43q-12 23 -10 67q0 55 -4 72q-49 225 -174 256q-8 -8 -19 -27 q-82 -209 -151 -438v-20h233q4 2 56.5 -4.5t76.5 -8.5q4 -2 13 -10q-2 -47 -66 -94q14 -4 74 -6q43 0 80 -31q8 -41 -54.5 -86t-103.5 -45q-8 0 -29.5 9t-29 11t-66.5 2q-49 0 -147 -6q-115 -8 -119 -16q-49 -156 -160 -469v-21l348 82q225 45 398 45q141 1 184 -32 q0 -12 -2 -19q-6 -18 -39 -45.5t-35 -38.5q-6 -20 -27 -55q-82 -72 -135 -72q18 0 -123 19q-14 2 -104 2q-406 0 -834 -139q-59 -18 -120 -50q-31 -16 -61 -34.5t-58 -18.5q-33 0 -33 29zM598 121q25 4 64.5 25.5t48.5 33.5q24 30 67 180q-45 -80 -180 -239zM1100 858h18v10 h-18v-10z" />
<glyph unicode="&#xa5;" horiz-adv-x="2236" d="M164 610q0 49 162 133q-8 6 -29 7q-27 -2 -33 0q-16 4 -26 18q2 39 22 55q127 100 412 205q8 29 8 66v223q0 31 61 72q55 35 86 34q39 0 39 -53q0 -18 -8 -33l2 -59q12 88 60 154q53 76 127 75q4 0 15 -5t17 -5q4 0 21.5 15.5t23.5 19.5q43 23 127 61q68 29 111 33 q172 16 270 16q53 0 45 3q18 -2 62 -31q80 -49 80 -160q0 -37 -11 -76q-12 -47 13 -96q184 37 166 37q35 0 34 -21q0 -31 -61 -77q-51 -39 -76 -45q-37 -12 -67 -13q2 -6 -5 -26q139 6 238 -29q14 -4 40 -26.5t26 -32.5q0 -39 -64 -80q-53 -35 -82 -35q-10 0 -49 22l-39 23 q-57 14 -113 22q-94 -168 -286 -290q-162 -104 -334 -146q6 -137 29 -327q8 -2 24 -15q0 -8 -4 -23.5t-4 -25.5q0 -55 -57.5 -99t-110.5 -38q-16 16 -20 37q-25 143 -31 364q-8 252 -21 355q-12 -174 -12 -232v-272q0 -23 4 -66t4 -63q0 -115 -131 -160h-39q-18 14 -20 33 q-55 393 -84 760q-137 -53 -242 -107q-12 -10 -41 -33q-43 -31 -90 -41q-12 0 -37 -4q-66 -18 -65 -18q-37 0 -37 20zM389 778q123 47 287 121l-8 19q-76 -29 -152 -56q-88 -39 -127 -84zM1112 1325q2 -127 8 -176q41 6 127 25.5t127 25.5q-33 86 -74 113q-63 39 -112 37 h-70zM1135 860q37 37 94 72h-21q2 0 -73 -14v-58zM1147 748l14 -35q12 0 53 30q27 29 33 62q-20 -14 -69 -45q-25 -12 -31 -12zM1315 725q92 35 184 109q107 85 121 161h-41q-123 -123 -264 -270zM1364 1479q37 -10 94 -35q51 -37 82 -103q27 -57 29 -104q24 2 55 25 q-8 61 -72 135q-74 90 -149 90q-6 0 -20.5 -4t-18.5 -4z" />
<glyph unicode="&#xa9;" horiz-adv-x="1998" d="M197 612q0 289 255 579t586 349q41 0 119 8q47 12 94 25h70q457 0 457 -541q0 -158 -23 -291q-12 -74 -47 -155q-117 -283 -428 -445q-260 -133 -528 -133q-182 0 -334 109q-170 123 -209 327q-12 61 -12 168zM373 705q0 -2 4 -46.5t4 -64.5q-8 102 41 217q35 78 131 229 q117 189 291 330q-43 -6 -148 -76q-139 -92 -235 -280q-88 -174 -88 -309zM410 492q6 -33 43 -111q29 -41 71 -59q-14 27 -57 92zM559 702q0 -80 111 -264q10 -14 41 -55q25 -33 24 -39q0 -33 -51 -72q-39 -29 -78 -45q78 -43 107 -53q102 -31 153 -31q92 0 277 50 q47 10 131 47q12 6 26 14q104 102 160 248q43 119 43 252q0 211 -176 420q-33 41 -100 102q-29 18 -115 57q-61 29 -82 53q-131 -55 -289 -260q-182 -233 -182 -424zM705 627q0 211 135 353t323 142q31 0 49 -10q-6 -31 -26 -65q4 -6 4 -17q0 -33 -45 -69.5t-80 -42.5 q-20 -2 -72 -15q-18 -6 -43.5 -59t-25.5 -76q0 -43 37 -100q43 -63 94 -64q27 0 74 36t83 36q18 0 25.5 -4t7.5 -25q0 -63 -102 -119q-18 -10 -137 -57q35 -23 55 -22q6 0 19.5 6t21.5 8q47 8 92 39q61 41 92 41t31 -23q0 -14 -23 -45q-37 -47 -102 -82q-53 -23 -105 -47 q-4 -2 -77 -27q-20 -6 -64 -6q-106 0 -180 121q-61 100 -61 193zM1442 1370q14 -14 57 -72q25 -39 55 -59q-6 25 -47 84q-32 33 -65 47z" />
<glyph unicode="&#xad;" d="M262 741q0 131 483 205q319 49 543 49q121 0 146 -4q16 1 49 -22q2 -25 -28 -63t-64 -54q-14 -6 -43 -25q2 -6 2 -14q0 -41 -64.5 -87t-107.5 -46q-6 0 -76 9t-78 9q-2 0 -53 -8t-76 -8q-86 -2 -248 -47q-68 -25 -135 -49q-129 -45 -182 -45q-33 0 -66 18 q-12 51 55.5 110.5t118.5 59.5q16 0 20.5 -2t7.5 -12t11 -10q20 0 305 100q-2 2 -24 2q-147 -4 -308 -47t-145 -43q-43 0 -43 24z" />
<glyph unicode="&#xae;" horiz-adv-x="2285" d="M233 662q0 152 62 317q23 45 72 139q20 45 75 119q121 168 410 305q70 33 248 69t270 36q39 0 39 -23q0 -10 -20 -43q25 0 79 6t58 6q534 0 534 -862q0 -109 -26 -242q-23 -117 -90 -200q-119 -147 -416 -228q-231 -63 -459 -63q-350 0 -582 166q-254 182 -254 498z M416 758q0 -6 4 -39t4 -45q-6 231 154 491q100 163 286 265q-102 -23 -186 -84.5t-152 -188.5q-20 -37 -49 -98q-61 -188 -61 -301zM610 799q0 -143 88 -269.5t289 -189.5q80 -25 141 -25q6 0 45 5.5t46 5.5q35 0 34 -23q0 -37 -61 -80q-53 -37 -82 -41q-61 -10 -174 -10 q264 -35 250 -35q143 0 340 41q219 47 278 107q13 12 29 61q-18 -10 -43 -10q-31 0 -31 31q0 -10 27 110q4 25 4 41q0 20 -12 82q-39 -16 -80 -16q-39 0 -39 22q-4 2 -14 6q-147 25 -420 58q-16 2 -56.5 9t-46.5 5h-55q0 -10 8 -41t8 -47q0 -45 -65.5 -94t-104.5 -37 q-14 20 -28 84q-18 2 -27 16q-29 55 -84 156q-80 141 -80 172q0 35 66 82q59 45 82 39q23 45 66.5 80.5t86.5 35.5q45 0 45 -36q53 27 99 34q27 2 65 11q92 35 117 35q49 0 80 -13q51 -20 92 -63t41 -82q0 -33 -47 -105.5t-78 -99.5q100 -14 317 -45q-72 172 -143 309 q-18 39 -53 103q-125 227 -270 227q-8 0 -31 -3t-29 -3t-20.5 6t-20.5 6q-37 0 -205 -84q-41 -20 -92 -53q-106 -72 -160 -139q-35 -43 -63.5 -154t-28.5 -182zM1028 936q0 -35 12 -121q41 20 85 43t79 57q29 27 29 33q0 20 -49 37q-39 12 -62 12q-8 0 -27.5 -4t-25.5 -4 q-41 -47 -41 -53zM1243 827q6 0 20.5 -4t20.5 -4q20 0 55 86q-35 -29 -96 -78zM1706 1329q12 -31 57 -119q39 -74 70 -125q-2 23 -6 43q-12 51 -37 93q-39 63 -84 108z" />
<glyph unicode="&#x2000;" horiz-adv-x="910" />
<glyph unicode="&#x2001;" horiz-adv-x="1821" />
<glyph unicode="&#x2002;" horiz-adv-x="910" />
<glyph unicode="&#x2003;" horiz-adv-x="1821" />
<glyph unicode="&#x2004;" horiz-adv-x="607" />
<glyph unicode="&#x2005;" horiz-adv-x="455" />
<glyph unicode="&#x2006;" horiz-adv-x="303" />
<glyph unicode="&#x2007;" horiz-adv-x="303" />
<glyph unicode="&#x2008;" horiz-adv-x="227" />
<glyph unicode="&#x2009;" horiz-adv-x="364" />
<glyph unicode="&#x200a;" horiz-adv-x="101" />
<glyph unicode="&#x2010;" d="M262 741q0 131 483 205q319 49 543 49q121 0 146 -4q16 1 49 -22q2 -25 -28 -63t-64 -54q-14 -6 -43 -25q2 -6 2 -14q0 -41 -64.5 -87t-107.5 -46q-6 0 -76 9t-78 9q-2 0 -53 -8t-76 -8q-86 -2 -248 -47q-68 -25 -135 -49q-129 -45 -182 -45q-33 0 -66 18 q-12 51 55.5 110.5t118.5 59.5q16 0 20.5 -2t7.5 -12t11 -10q20 0 305 100q-2 2 -24 2q-147 -4 -308 -47t-145 -43q-43 0 -43 24z" />
<glyph unicode="&#x2011;" d="M262 741q0 131 483 205q319 49 543 49q121 0 146 -4q16 1 49 -22q2 -25 -28 -63t-64 -54q-14 -6 -43 -25q2 -6 2 -14q0 -41 -64.5 -87t-107.5 -46q-6 0 -76 9t-78 9q-2 0 -53 -8t-76 -8q-86 -2 -248 -47q-68 -25 -135 -49q-129 -45 -182 -45q-33 0 -66 18 q-12 51 55.5 110.5t118.5 59.5q16 0 20.5 -2t7.5 -12t11 -10q20 0 305 100q-2 2 -24 2q-147 -4 -308 -47t-145 -43q-43 0 -43 24z" />
<glyph unicode="&#x2012;" d="M262 741q0 131 483 205q319 49 543 49q121 0 146 -4q16 1 49 -22q2 -25 -28 -63t-64 -54q-14 -6 -43 -25q2 -6 2 -14q0 -41 -64.5 -87t-107.5 -46q-6 0 -76 9t-78 9q-2 0 -53 -8t-76 -8q-86 -2 -248 -47q-68 -25 -135 -49q-129 -45 -182 -45q-33 0 -66 18 q-12 51 55.5 110.5t118.5 59.5q16 0 20.5 -2t7.5 -12t11 -10q20 0 305 100q-2 2 -24 2q-147 -4 -308 -47t-145 -43q-43 0 -43 24z" />
<glyph unicode="&#x2013;" horiz-adv-x="1530" d="M262 741q0 131 405 205q268 49 455 49q102 0 123 -4q13 1 41 -22q2 -25 -23.5 -63t-53.5 -54q-12 -6 -36 -25q1 -6 1 -14q0 -41 -54 -87t-90 -46q-5 0 -63.5 9t-65.5 9q-2 0 -44.5 -8t-63.5 -8q-72 -2 -208 -47q-57 -25 -113 -49q-109 -45 -153 -45q-28 0 -55 18 q-10 51 46.5 110.5t99.5 59.5q13 0 17 -2t6.5 -12t8.5 -10q17 0 256 100q-2 2 -20 2q-123 -4 -258 -47t-122 -43q-36 0 -36 24z" />
<glyph unicode="&#x2014;" horiz-adv-x="2553" d="M262 741q0 131 810 205q535 49 911 49q203 0 245 -4q26 1 82 -22q3 -25 -47 -63t-108 -54q-23 -6 -72 -25q4 -6 4 -14q0 -41 -108.5 -87t-180.5 -46q-10 0 -127.5 9t-130.5 9q-3 0 -88.5 -8t-127.5 -8q-145 -2 -416 -47q-114 -25 -227 -49q-216 -45 -305 -45 q-55 0 -111 18q-20 51 93.5 110.5t198.5 59.5q27 0 34.5 -2t12.5 -12t19 -10q33 0 511 100q-3 2 -40 2q-247 -4 -517 -47t-243 -43q-72 0 -72 24z" />
<glyph unicode="&#x202f;" horiz-adv-x="364" />
<glyph unicode="&#x205f;" horiz-adv-x="455" />
<glyph unicode="&#x2122;" horiz-adv-x="2076" d="M233 1366q0 29 74 72q55 33 78 39q401 111 412 110h30q0 -2 3.5 -6t3.5 -10q0 -63 -193 -105q-8 -2 -29 -12q18 -29 33 -102q0 -6 17 -62q12 -47 43 -139q12 -31 38 -72q20 -35 21 -39q0 -25 -44 -53.5t-65 -28.5q-14 0 -27.5 20.5t-27.5 39.5q-57 -84 -125 -80 q-4 4 -10 12q-14 70 -29 201q-16 176 -20 203q-2 6 -10 16q0 4 4 16.5t4 16.5q-23 -4 -62 -17q-10 -4 -45 -24q-25 -14 -33 -14h-34q0 2 -3.5 6t-3.5 12zM803 971q0 61 88 286q70 184 94 230q14 27 53 49q33 23 54 23q14 0 24 -21q41 31 66 31q35 0 16 -68q33 2 39 -33 q4 -25 9 -48t75 -201q47 76 121 202q29 53 57 105q55 82 103 82h26q0 -2 3 -6.5t3 -10.5q0 -12 -35 -61q-4 -16 -4 -17q12 16 39 48q45 37 76 36q23 0 23 -20q0 -6 -27 -66.5t-27 -66.5q0 25 23 -113q2 -18 8 -51q10 -41 49 -137q35 -88 35 -92q0 -29 -49 -57.5t-70 -24.5 l-20 20q-49 137 -78 240q-14 -47 -84 -131q-76 -90 -117 -90h-26q0 2 -3.5 6t-3.5 12q0 -2 35 57q-2 -2 -45 -49q-35 -37 -88 -37q-45 125 -115 301q-10 -35 -34 -104q-20 -49 -56 -150q0 4 2 -38q0 -20 -43 -49t-65 -29q-23 0 -23 20q-2 33 -6 39q-49 -39 -80 -39 q-23 0 -22 23zM952 1122q-2 -18 11 -28l16 67q-12 -8 -27 -39zM1403 1161q0 -6 6 -20.5t6 -18.5q133 252 133 262q0 8 -3 17.5t-3 11.5q-102 -135 -125 -227q-2 -4 -8 -11.5t-6 -13.5z" />
<glyph unicode="&#x25fc;" horiz-adv-x="1730" d="M0 0v1731h1731v-1731h-1731z" />
</font>
</defs>
</svg>
